<svg id="SvgjsSvg1001" width="550" height="550" xmlns="http://www.w3.org/2000/svg" version="1.1" xmlns:xlink="http://www.w3.org/1999/xlink" xmlns:svgjs="http://svgjs.com/svgjs"><defs id="SvgjsDefs1002"></defs><g id="SvgjsG1008"><svg xmlns="http://www.w3.org/2000/svg" enable-background="new 0 0 3000 3000" viewBox="0 0 3000 3000" width="550" height="550"><path fill="#A6B1BF" d="M25.01,617.96c0,0-5.43-533.38,198.66-431.33c8.16,4.08,210.9,78.92,214.98,78.92s69.39,123.82,69.39,123.82
				l-87.08,180.97l-36.74,47.62L25.01,617.96L25.01,617.96z" class="colora6b1bf svgShape"></path><path fill="#F3F3F3" d="M223.67,186.63c193.54,144.79,138.26,599.08,50.34,1093.96C113.57,2070.51,152.1,2599.45,420.96,2826.32
				h1792c-245.84-126.3-317.19-557.93-206.28-1308.44c12.12-82.04,26.53-163.76,42.22-245.19
				c42.42-220.18,165.69-1025.04-284.96-1086.06L223.67,186.63L223.67,186.63z" class="colorf3f3f3 svgShape"></path><path fill="#37424C" d="M814.95,453.98c-13.5,0-24.49-10.98-24.49-24.49c0-13.5,10.98-24.49,24.49-24.49
					c13.5,0,24.48,10.98,24.48,24.49C839.44,443,828.46,453.98,814.95,453.98z M814.95,414.25c-8.41,0-15.25,6.84-15.25,15.25
					s6.84,15.25,15.25,15.25s15.25-6.84,15.25-15.25S823.36,414.25,814.95,414.25z" class="color37424c svgShape"></path><path fill="#FFC42E" d="M1201.23,463.07h-0.03v113.21h0.03c132.48,0,239.93,107.33,239.93,239.78v0.06h113.12v-0.03
									C1554.28,621.12,1396.2,463.07,1201.23,463.07z" class="colorffc42e svgShape"></path><path fill="#49BDA0" d="M1554.27,816.12c-0.03,52.49-11.47,102.32-32.01,147.1c-24.88,54.27-63.11,101.11-110.49,136.31
									c-58.77,43.78-131.64,69.67-210.55,69.67h-0.03v-113.21h0.03c53.66,0,103.16-17.58,143.07-47.27
									c32.21-23.94,58.14-55.78,75.05-92.67c13.99-30.4,21.79-64.22,21.82-99.93L1554.27,816.12L1554.27,816.12z" class="color49bda0 svgShape"></path><path fill="#2B91CC" d="M1201.2,463.07v113.21c-68.34,0.03-130.01,28.59-173.71,74.43l-80.28-79.8
									C1011.39,504.42,1101.47,463.07,1201.2,463.07z" class="color2b91cc svgShape"></path><path fill="#FA5669" d="M1027.49,650.71c-40.98,43.01-66.17,101.24-66.17,165.35c0,0.03,0,0.03,0,0.06h-113.2v-0.03
									c0-95.24,37.76-181.7,99.1-245.18L1027.49,650.71z" class="colorfa5669 svgShape"></path><path fill="#8A8BC4" d="M1201.2,1056v113.21c-195-0.03-353.05-158.09-353.08-353.08h113.21
							C961.36,948.7,1068.78,1055.97,1201.2,1056z" class="color8a8bc4 svgShape"></path><path fill="#37424C" d="M920.85 698.14H725.17l-78.19-78.19 6.53-6.53 75.48 75.49h191.86c2.55 0 4.62 2.07 4.62 4.62l0 0C925.47 696.07 923.4 698.14 920.85 698.14zM1422.79 616.68L1422.79 616.68c-1.91-1.69-2.1-4.61-.41-6.52l91.44-103.66h188.66v9.24h-184.49l-88.68 100.53C1427.62 618.18 1424.7 618.37 1422.79 616.68zM1726.54 1063.07h-9.24V962.45h-239.53c-2.55 0-4.62-2.07-4.62-4.62l0 0c0-2.55 2.07-4.62 4.62-4.62h248.77V1063.07zM1080.09 554.16l-44.49-120.05H833.43v-9.24h208.61l46.71 126.08c.89 2.39-.33 5.05-2.72 5.93l0 0C1083.63 557.77 1080.98 556.55 1080.09 554.16zM955.11 1013.33H724.26v-9.24h230.85c2.55 0 4.62 2.07 4.62 4.62l0 0C959.73 1011.26 957.66 1013.33 955.11 1013.33z" class="color37424c svgShape"></path><path fill="#37424C" d="M1721.92 535.6c-13.5 0-24.49-10.98-24.49-24.48 0-13.5 10.98-24.49 24.49-24.49 13.5 0 24.49 10.99 24.49 24.49C1746.4 524.62 1735.42 535.6 1721.92 535.6zM1721.92 495.87c-8.41 0-15.25 6.84-15.25 15.25 0 8.41 6.84 15.24 15.25 15.24s15.25-6.84 15.25-15.24C1737.17 502.71 1730.32 495.87 1721.92 495.87zM1721.92 1107.43c-13.5 0-24.49-10.98-24.49-24.49 0-13.5 10.98-24.49 24.49-24.49 13.5 0 24.49 10.98 24.49 24.49C1746.4 1096.44 1735.42 1107.43 1721.92 1107.43zM1721.92 1067.69c-8.41 0-15.25 6.84-15.25 15.25s6.84 15.25 15.25 15.25 15.25-6.84 15.25-15.25C1737.17 1074.53 1730.32 1067.69 1721.92 1067.69zM704.39 1033.19c-13.5 0-24.48-10.98-24.48-24.49s10.98-24.49 24.48-24.49 24.49 10.98 24.49 24.49S717.89 1033.19 704.39 1033.19zM704.39 993.46c-8.41 0-15.25 6.84-15.25 15.25s6.84 15.25 15.25 15.25 15.25-6.84 15.25-15.25S712.8 993.46 704.39 993.46zM637.01 627.53c-13.5 0-24.49-10.98-24.49-24.49 0-13.5 10.98-24.48 24.49-24.48 13.5 0 24.49 10.98 24.49 24.48C661.5 616.55 650.52 627.53 637.01 627.53zM637.01 587.8c-8.41 0-15.25 6.84-15.25 15.25s6.84 15.25 15.25 15.25 15.25-6.84 15.25-15.25S645.42 587.8 637.01 587.8z" class="color37424c svgShape"></path><polygon fill="#2B91CC" points="1318.18 939.84 1272.79 939.84 1272.79 780.13 1318.18 750.13" class="color2b91cc svgShape"></polygon><path fill="#2B91CC" d="M1246.03 787.23v152.61h-45.38V801.05c5.23-4.38 13.72 20.92 18.86 16.08L1246.03 787.23zM1173.88 823.37v116.48h-45.38v-94.43c14.32-5.7 28.36-13.09 42.14-22.05H1173.88z" class="color2b91cc svgShape"></path><rect width="45.39" height="80.22" x="1056.34" y="859.62" fill="#2B91CC" class="color2b91cc svgShape"></rect><path fill="#49BDA0" d="M1370.43,692.39l-61.78,9.75l15.44,16.01c-72.74,62.95-170.25,99.56-287.21,116.79
							c-3.47,0.51-5.89,3.72-5.4,7.19l3.53,25.12c0.49,3.51,3.76,5.93,7.27,5.41c64.5-9.58,123.53-26.08,175.56-49.09
							c48.89-21.62,89.35-50.66,126.07-84.88l14.56,15.09L1370.43,692.39z" class="color49bda0 svgShape"></path><path fill="#3EAF8F" d="M1032.58,844.56l3.53,25.12c0.02,0.16,0.05,0.31,0.08,0.46c-0.61-0.82-1.03-1.81-1.19-2.89l-3.53-25.12
							c-0.49-3.47,1.93-6.68,5.4-7.19c116.6-17.17,213.85-53.6,286.52-116.2l1.78,1.84c-72.74,62.95-170.25,99.56-287.2,116.79
							C1034.51,837.88,1032.09,841.09,1032.58,844.56z" class="color3eaf8f svgShape"></path><polygon fill="#3EAF8F" points="1370.43 692.39 1369.91 695.08 1310.82 704.4 1308.65 702.15" class="color3eaf8f svgShape"></polygon><g fill="#000000" class="color000 svgShape"><path fill="#37424C" d="M629.1,1598.94H512.21c-12.93,0-23.45-10.52-23.45-23.45V1458.6c0-12.93,10.52-23.45,23.45-23.45H629.1
					c12.93,0,23.45,10.52,23.45,23.45v116.89C652.55,1588.42,642.02,1598.94,629.1,1598.94z M512.21,1451.42
					c-3.96,0-7.19,3.22-7.19,7.18v116.89c0,3.96,3.22,7.18,7.19,7.18H629.1c3.96,0,7.19-3.22,7.19-7.18V1458.6
					c0-3.96-3.23-7.18-7.19-7.18L512.21,1451.42L512.21,1451.42z" class="color37424c svgShape"></path><polygon fill="#2B91CC" points="521.59 1464.02 573.17 1508.29 714.66 1401.04 568.15 1572.65" class="color2b91cc svgShape"></polygon><rect width="951.34" height="28.61" x="813.57" y="1459.84" fill="#C2CBD6" class="colorc2cbd6 svgShape"></rect><rect width="416.87" height="28.61" x="813.57" y="1545.64" fill="#C2CBD6" class="colorc2cbd6 svgShape"></rect></g><g fill="#000000" class="color000 svgShape"><path fill="#37424C" d="M590.58,2070.31H473.69c-12.93,0-23.45-10.52-23.45-23.45v-116.89c0-12.93,10.52-23.45,23.45-23.45h116.89
					c12.93,0,23.45,10.52,23.45,23.45v116.89C614.03,2059.79,603.5,2070.31,590.58,2070.31z M473.69,1922.79
					c-3.96,0-7.19,3.22-7.19,7.18v116.89c0,3.96,3.22,7.18,7.19,7.18h116.89c3.96,0,7.19-3.22,7.19-7.18v-116.89
					c0-3.96-3.23-7.18-7.19-7.18L473.69,1922.79L473.69,1922.79z" class="color37424c svgShape"></path><polygon fill="#2B91CC" points="483.07 1935.39 534.65 1979.67 676.14 1872.41 529.63 2044.02" class="color2b91cc svgShape"></polygon><rect width="951.34" height="28.61" x="775.05" y="1931.21" fill="#C2CBD6" class="colorc2cbd6 svgShape"></rect><rect width="432.09" height="28.61" x="775.05" y="2017.01" fill="#C2CBD6" class="colorc2cbd6 svgShape"></rect></g><g fill="#000000" class="color000 svgShape"><path fill="#37424C" d="M673.07,2524.62H556.18c-12.93,0-23.45-10.52-23.45-23.45v-116.89c0-12.93,10.52-23.45,23.45-23.45h116.89
					c12.93,0,23.45,10.52,23.45,23.45v116.89C696.53,2514.11,686,2524.62,673.07,2524.62z M556.18,2377.1
					c-3.96,0-7.19,3.22-7.19,7.18v116.89c0,3.96,3.22,7.18,7.19,7.18h116.89c3.96,0,7.19-3.22,7.19-7.18v-116.89
					c0-3.96-3.23-7.18-7.19-7.18H556.18z" class="color37424c svgShape"></path><polygon fill="#2B91CC" points="565.57 2389.71 617.15 2433.98 758.63 2326.72 612.12 2498.33" class="color2b91cc svgShape"></polygon><rect width="951.34" height="28.61" x="857.55" y="2385.52" fill="#C2CBD6" class="colorc2cbd6 svgShape"></rect><rect width="400.21" height="28.61" x="857.55" y="2471.33" fill="#C2CBD6" class="colorc2cbd6 svgShape"></rect></g><g fill="#000000" class="color000 svgShape"><path fill="#F7C19B" d="M2235.75,1588.53l10.68,48.97l-20,8.05c0,0-58.77,48.67-82.88-11.35c-9.39-23.38,15.59-46.03,37.79-34.12
			c0.31,0.17,0.62,0.34,0.94,0.51c0.76,0.42,1.54-0.53,0.96-1.18l-14.01-15.54c-2.38-2.64-2.24-6.7,0.33-9.17l0,0
			c2.35-2.26,6.02-2.46,8.6-0.46l17.45,13.49c3.9,3.02,8.83,4.39,13.73,3.83L2235.75,1588.53z" class="colorf7c19b svgShape"></path><path fill="#333333" d="M2565.56,1185.57c0,0-41.6,10.49-46.28,51.3c-2.59,22.52,8.37,44.48,26.95,57.46l109.02,76.2l95.05,71.75
				l54.75,9.69c0,0,114.19-1.18,64.34-93.45c0,0,18.42-66.76-49.89-92.14c0,0-8.41-35.71-57.73-40.4" class="color333 svgShape"></path><path fill="#F7C19B" d="M2622.23 1219.26c-.63 9.5 2.6 34.47-1.58 44.36-2.18 5.15-.05 11.1 4.88 13.73 13.33 7.12 24.34 16.77 56.45 7.77 5.53-1.55 8.97-7.02 7.84-12.65-3.94-19.52-1.17-76.09 5.74-92.1 0 0 52.54-157.75-82.45-120.27-2.39.66-6.05 2.31-8.15 3.62l-11.49 7.12c-9.77 6.05-16.39 16.1-18.03 27.48-4.91 34.16-9.54 104.47 34.95 107.55C2617.38 1206.34 2622.69 1212.27 2622.23 1219.26zM2469.33 2223.79l-39.83 536.83h74.46c-13.62-101.78 46.97-307.86 100.44-503.93L2469.33 2223.79zM2654.97 2254.96l107.36 505.66 62.34-34.63-5.69-26.43c-15.8-73.42-24.65-148.17-26.43-223.25l-5.99-252.52L2654.97 2254.96z" class="colorf7c19b svgShape"></path><path fill="#FA5669" d="M2775.29,1702.58l-94.69,68.08l-181.84-75.03c31.12-69.71,41.17-146.36,47.01-230.33
				c-7.47-9.98-12.79-19.81-16.34-29.2l-67.93,92.1c-17.08,28.53-44.5,49.3-76.65,57.88l-148.67,61.96l-20.68-62.99l168.02-93.88
				c111.91-153.75,79.39-199.87,238.9-238.54c4.58,27.43,17.08,35.48,30.16,35.48c18.63,0,38.44-16.19,38.44-16.19
				c55.88,8.94,98.75,56.92,97.5,113.54c-0.59,28.39-5.69,64.31-18.04,109.62c-1.4,5.1-3.77,9.9-6.87,14.19l-13.3,18.04
				C2744.54,1639.31,2775.29,1702.58,2775.29,1702.58z" class="colorfa5669 svgShape"></path><path fill="#333333" d="M2975 2252.08c-52.52-82.06-96.87-169.09-122.16-267.75-8.98-35.04-13.52-70.88-16.61-106.92-3.6-41.88-16.32-118.28-60.95-174.86l-276.5-6.93c-63.31 181.61-86.4 389.07-80.23 615.34l41.53-13.71c48.21-15.91 100.03-17.29 149.01-3.96l1.74.47c52.08 14.17 107.32 11.33 157.67-8.11l0 0c35.88-13.85 73.57-22.5 111.9-25.7L2975 2252.08M2622.25 1218.88l.2-7.42c.05-3.11-2.61-5.27-5.73-5.26-9.7.04-31.41-2.25-40.15-35.5-10.5-39.93 7.69-81.98 42.07-104.84l1.99-1.32c1.33-.88 3.26-.62 4.06.77 3.9 6.81-6.31 29.01 5.75 44.35 14.26 18.13 23.39 39.73 21.83 62.74l-.24 3.52c-.69 10.12.91 20.05 4.94 29.19 8.18 18.53 10.31 79.02 46.97 74.33 11.55-1.48 53.45-50.63 49.6-61.62l0 0c-2.48-7.06-3.49-14.55-2.99-22.01l6.04-89.31c.42-6.26.15-12.52-.99-18.69-5.91-31.73-33.32-120.36-152.5-82.42 0 0-40.48 15.37-43.66 62.35l-4.81 71.09c-.19 2.75-.13 5.51.21 8.25 1.17 9.67 3.37 36.33-4.27 58.19-.34.97-.42 2.01-.19 3.02l0 0M2755.35 2723.4l68.65-.6 16.64 77.27c.28 1.2.42 2.42.42 3.65v6.58c0 8.87-7.19 16.05-16.05 16.05h-172.04c-4.55 0-8.73-2.47-10.92-6.46l0 0c-3.02-5.49-1.49-12.37 3.56-16.06 45.21-19.72 81.9-44.57 108.19-79.92C2754.26 2723.58 2754.8 2723.4 2755.35 2723.4zM2432.31 2722.79h69.9l16.65 77.27c.28 1.2.42 2.42.42 3.65v6.58c0 8.87-7.19 16.05-16.05 16.05h-172.04c-4.55 0-8.73-2.47-10.92-6.46l0 0c-3.02-5.49-1.49-12.37 3.56-16.06C2369.26 2784.01 2406.02 2758.41 2432.31 2722.79z" class="color333 svgShape"></path><path fill="#2B91CC" d="M2511.86 1910.69L2511.86 1910.69c-20.42 18.3-51.81 16.59-70.11-3.83l-463.33-462.31c-6.42-7.17-5.82-18.18 1.34-24.61l45.9-45.12c7.17-6.42 18.18-5.82 24.61 1.34l465.43 464.41C2533.99 1860.99 2532.28 1892.39 2511.86 1910.69zM1398.88 769.88c-151.68 145.55-156.61 387.3-11.11 538.92 127.04 132.38 381.65 156.89 533.94 15.8 1.68-1.51 3.36-3.12 4.99-4.69 1.68-1.61 3.31-3.17 4.89-4.79 146.8-145.99 150.07-384.13 6.18-534.08C1792.25 629.41 1550.51 624.38 1398.88 769.88zM1901.04 1293.18c-136.9 131.37-355.17 126.88-486.54-10.03-131.37-136.9-126.87-355.17 10.03-486.54s355.12-126.83 486.49 10.07C2042.39 943.6 2037.94 1161.81 1901.04 1293.18z" class="color2b91cc svgShape"></path><path fill="#FFFFFF" d="M1911.05,806.66c131.39,136.92,126.93,355.16-9.99,486.55c-136.91,131.39-355.21,126.89-486.6-10.03
								s-126.88-355.21,10.03-486.6C1561.42,665.2,1779.66,669.74,1911.05,806.66z" opacity=".3" class="colorfff svgShape"></path><rect width="35.19" height="168.89" x="1962.81" y="1291.58" fill="#2B91CC" transform="rotate(-43.813 1980.397 1376.046)" class="color2b91cc svgShape"></rect><path fill="#F7C19B" d="M2351.29,1703.52l20.85,45.58l-17.83,12.11c0,0-47.08,60.05-83.4,6.53c-14.15-20.85,5.45-48.29,29.67-41.37
			c0.34,0.1,0.68,0.2,1.02,0.3c0.84,0.25,1.39-0.85,0.68-1.36l-16.99-12.21c-2.89-2.08-3.61-6.08-1.63-9.03l0,0
			c1.82-2.71,5.36-3.68,8.31-2.28l19.92,9.47c4.45,2.12,9.56,2.41,14.23,0.82L2351.29,1703.52z" class="colorf7c19b svgShape"></path><polygon fill="#FA5669" points="2542.48 1550.96 2334.86 1699.78 2364.96 1765.64 2562.02 1640.8" class="colorfa5669 svgShape"></polygon></g></svg></g></svg>