<?xml version="1.0" encoding="utf-8"?>
<!-- Generator: Adobe Illustrator 27.0.0, SVG Export Plug-In . SVG Version: 6.00 Build 0)  -->
<svg version="1.1" id="Layer_1" xmlns="http://www.w3.org/2000/svg" xmlns:xlink="http://www.w3.org/1999/xlink" x="0px" y="0px"
	 viewBox="0 0 232.82 47.06" style="enable-background:new 0 0 232.82 47.06;" xml:space="preserve">
<style type="text/css">
	.st0{fill-rule:evenodd;clip-rule:evenodd;fill:#FFFFFF;}
	.st1{fill-rule:evenodd;clip-rule:evenodd;fill:#081B1D;}
	.st2{fill:#081B1D;}
	.st3{fill:#FFFFFF;}
	.st4{fill:none;}
	.st5{font-family:'MyriadPro-Bold';}
	.st6{font-size:14px;}
	.st7{font-size:18px;}
	.st8{font-family:'MyriadPro-Regular';}
</style>
<g>
	<path class="st0" d="M23.52,3.58c11.33,0,20.52,9.19,20.52,20.52s-9.19,20.52-20.52,20.52S3,35.42,3,24.09S12.19,3.58,23.52,3.58
		L23.52,3.58z"/>
	<path class="st1" d="M21.16,32.26c-0.14,0.07-0.28,0.17-0.34,0.31c-0.1,0.24,0.09,0.34,0.25,0.47c0.03,0.06,0.07,0.11,0.1,0.17
		c0.74,1.06,0.47,2.23-0.08,2.95c-0.31,0.41-0.7,0.65-1.19,0.75c-0.75,0.16-0.1-0.27,0.04-1.14c0-0.13,0-0.26,0-0.38
		c-0.08-0.21-0.13-0.44-0.16-0.68c-0.19-0.29-0.27-0.51-0.35-0.63c-0.14-0.09-0.28-0.18-0.41-0.26c-0.23,0.13-0.2,0.21-0.22,0.52
		c-0.12,0.3-0.28,0.6-0.51,0.83c-0.28,0.19-0.44,0.19-0.77,0.16c-0.03-0.04-0.05-0.09-0.08-0.13c0.02-0.05,0.04-0.1,0.05-0.14
		c0.28-0.39,0.38-0.76-0.01-1.16c-0.03,0.05-0.16,0.27-0.37,0.4c-0.41,0.23-0.64,0.21-1.13,0.26c-0.36,0.04-0.6,0.12-0.3-0.37
		c0.47-0.31,0.41-0.64,0.3-1.16c-0.13-0.18-0.33-0.37-0.6-0.55c-1.44-0.96-3.13-2.07-4-4.15c-0.24-0.57-0.4-1.18-0.41-1.49
		c-0.13-0.07-0.33-0.04-0.42-0.14c-0.35-0.38,0.23-0.57,0.34-0.84c0.03-0.08,0.04-0.16,0.03-0.24c-0.02-0.23-0.16-0.4-0.35-0.51
		c-0.09-0.05-0.18-0.1-0.22-0.18c-0.07-0.12-0.03-0.28,0.08-0.4c0.1-0.11,0.22-0.19,0.34-0.21c0.15-0.03,0.15-0.29,0.19-0.43
		l0.18-0.49c0.1-0.21,0.22-0.44,0.37-0.58c0.18-0.36,0.45-0.78,0.8-1.1c1.3-1.21,2.42-1.64,0.3,0.01c-0.23,0.34-0.5,0.65-0.7,1.01
		c-0.44,0.36-0.59,0.99-0.72,1.52c0.09,0.37,0.36,0.38,0.68,0.51c0.25,0.04,0.5,0.07,0.76,0.11c0.95,0.04,1.9-0.08,2.84-0.23
		c0.12-0.06,0.25-0.12,0.38-0.17c0.06-0.09,0.12-0.17,0.2-0.25c0.02-0.41-0.04-0.71-0.17-1.01c-0.15-0.33-0.85-1.56-1.11-1.45
		c-0.08,0.03-0.13,0.06-0.15,0.16c0.04,0.46,0.06,1.2-0.22,1.6c-0.05,0-0.1,0.01-0.14,0.02c-0.1-0.29,0.08-0.69,0.1-1
		c-0.01-0.22-0.02-0.44-0.02-0.65c-0.11-0.73-0.29-0.93-0.54-1.18c0.03-0.01,0.08,0,0.13,0.03c0.19,0.1,0.33,0.2,0.44,0.39
		c0.05,0.04,0.13,0.08,0.2,0.14c0.29,0.21,0.58,0.53,0.83,0.78c0.47,0.48,0.85,1.41,1.1,1.82c0.11,0.11,0.21,0.22,0.32,0.34
		c0.22,0.4-0.1,0.57-0.1,0.99c0.04,0.04,0.07,0.09,0.12,0.14c0.19,0.08,0.54,0.32,0.47,0.51c-0.06,0.16-0.23,0.13-0.36,0.15
		c-0.1,0.01-0.21,0.02-0.26,0.02c0.06-0.05,0.1-0.12,0.13-0.2c0.06-0.17,0.02-0.19-0.12-0.27c-0.23-0.12-0.46-0.18-0.72-0.22
		c-0.06-0.04-0.12-0.07-0.17-0.1c-0.26,0-0.44,0.12-0.67,0.2c-0.14,0-0.34-0.04-0.44,0.07c-0.17-0.12-0.3-0.04-0.43,0.08
		c-0.24-0.04-0.5-0.16-0.74-0.07c-0.35-0.04-0.74,0.11-1.07,0.19c-0.19,0.11-0.43,0.14-0.63,0.16c-0.15,0.06-0.3,0.12-0.45,0.2
		c-0.26,0.04-0.62,0.25-0.34,0.53c0.39-0.1,0.77-0.33,1.16-0.48c0.33-0.08,0.66-0.17,0.98-0.28c0.19,0,0.38,0,0.58,0
		c0.62,0.03,1.78-0.17,2.24-0.05c-0.12,0.21-1.64,0.2-1.68,0.35c0.02,0.55,0.1,1.05,0.2,1.6c0.24,0.57,0.22,1.26,0.72,1.7
		c0.51,0.65,0.96,1.66,1.77,1.99c0.2,0.2,0.47,0.34,0.75,0.39c0.35,0.2,0.35,0.2,0.4,0.26c0.05-0.02,0.11-0.04,0.17-0.05
		c0.34,0.05,0.54,0.06,0.59-0.3c-0.02-0.24-0.02-0.24-0.05-0.32c-1.15-0.68-1.81-1.11-2.4-2.86c-0.06-0.38-0.12-0.76-0.19-1.15
		c-0.02-0.4-0.03-0.79-0.04-1.18c-0.06-0.19-0.09-0.21-0.27-0.28c-0.01-0.04-0.01-0.04,0.04-0.13c0.29,0.04,0.29,0.04,0.61,0.12
		c0.03,0.04,0.05,0.09,0.08,0.13c-0.05,0.14-0.1,0.28-0.14,0.44c0,0.31,0,0.62,0,0.94c0.08,0.44,0.16,0.88,0.25,1.32
		c0.26,0.44,0.61,0.8,1.05,1.05c0.12,0,0.25,0.01,0.38,0.02c0.19-0.09,0.28-0.36,0.52-0.28c0.17,0.22-0.06,0.64,0.12,0.83
		c0.14-0.02,0.23-0.05,0.36-0.13c0.08-0.17,0.16-0.33,0.24-0.49c0.43,0.15,0.33,0.65,0.42,1.01c0.04,0.04,0.09,0.07,0.14,0.11
		c-0.01,0.04-0.02,0.09-0.03,0.14c-0.18,0.12-0.38,0.2-0.43,0.42c0.05,0.14,0.11,0.35,0.24,0.44c-0.29,0.21-0.34,0.72-0.28,1.05
		c0.08,0.04,0.21,0.09,0.25,0.17c0.09,0.03,0.18,0.05,0.27,0.08c0.29,0.27,0.42,0.4,0.55,0.76c0.13,0.18,0.21,0.5,0.28,0.71
		c-0.04,0.01-0.08,0.02-0.12,0.03c-0.03-0.11-0.05-0.23-0.12-0.3c-0.03-0.12-0.05-0.24-0.08-0.36c-0.18-0.09-0.28-0.3-0.38-0.47
		c-0.23-0.18-0.23-0.18-0.33-0.29c-0.16-0.06-0.34-0.07-0.51-0.08c-0.22,0.11-0.2,0.08-0.2,0.35c0.11,0.07,0.21,0.14,0.32,0.21
		c0.2,0.2,0.39,0.39,0.6,0.6c0.12,0.36,0.3,0.71,0.36,1.09c-0.02,0.19-0.04,0.38-0.05,0.58c-0.04,0.16-0.14,0.36,0.02,0.46
		c0.6-0.1,0.75-0.86,0.89-1.34c0.12-1.01-0.01-1.45-0.63-2.17c-0.14-0.12-0.24-0.17-0.27-0.36c0.92-0.32,2.07-2.42,0.59-3.48
		c-0.52-0.17-0.25,0.65-0.22,0.89c-0.03,0.1-0.04,0.2-0.06,0.29c-0.07,0.11-0.13,0.21-0.2,0.33c-0.1,0.04-0.21,0.12-0.28,0.2
		c-0.01-0.04-0.02-0.07-0.02-0.11c0.19-0.09,0.28-0.46,0.31-0.67c0.04-0.6-0.2-1.08-0.76-1.25c-0.03-0.04-0.05-0.07-0.08-0.11
		c0.28-0.21,0.65-0.14,1,0c0.47,0.19,0.81,0.39,1.1,0.81c0.36,0.5,0.38,0.91,0.29,1.34C21.86,31.55,21.51,31.8,21.16,32.26
		L21.16,32.26z M12.77,23.22c0.09,0,0.15,0.07,0.15,0.15c0,0.09-0.07,0.15-0.15,0.15c-0.09,0-0.15-0.07-0.15-0.15
		C12.62,23.29,12.69,23.22,12.77,23.22L12.77,23.22z M14.07,28.06c0.01,0.06-0.01,0.11-0.05,0.12c-0.04,0.01-0.08-0.04-0.09-0.1
		c-0.01-0.06,0.01-0.11,0.05-0.12C14.02,27.96,14.06,28,14.07,28.06L14.07,28.06z M14.14,27.38c0.02,0.12-0.03,0.23-0.11,0.24
		c-0.08,0.01-0.16-0.07-0.18-0.19c-0.02-0.12,0.03-0.23,0.1-0.24C14.04,27.17,14.12,27.26,14.14,27.38L14.14,27.38z M16.21,32.47
		c0.07,0.04,0.11,0.11,0.09,0.15c-0.02,0.05-0.1,0.06-0.18,0.02c-0.07-0.04-0.11-0.11-0.09-0.15
		C16.06,32.44,16.14,32.43,16.21,32.47L16.21,32.47z M16.7,31.53c0.07,0.04,0.11,0.11,0.09,0.15c-0.02,0.05-0.1,0.06-0.18,0.02
		c-0.07-0.04-0.11-0.11-0.09-0.15C16.54,31.5,16.62,31.5,16.7,31.53L16.7,31.53z M15.43,31.77c0.11,0.06,0.17,0.16,0.13,0.23
		c-0.04,0.07-0.16,0.08-0.26,0.03c-0.11-0.06-0.17-0.16-0.13-0.23C15.2,31.72,15.32,31.71,15.43,31.77L15.43,31.77z M16.04,31.11
		c0.05,0,0.09,0.04,0.09,0.09c0,0.05-0.04,0.09-0.09,0.09s-0.09-0.04-0.09-0.09C15.95,31.15,15.99,31.11,16.04,31.11L16.04,31.11z
		 M19.08,30.75c0.08-0.07,0.17-0.12,0.28-0.13c0.04,0.1,0.05,0.2,0.03,0.31C19.29,30.92,19.19,30.88,19.08,30.75L19.08,30.75z
		 M18.14,35.01c-0.22-0.29,0.04-0.68,0.18-0.98c0-0.24-0.12-0.4-0.03-0.63c0.04-0.03,0.1-0.05,0.15-0.07
		c0.12,0.1,0.16,0.36,0.2,0.51C18.64,34.22,18.54,34.84,18.14,35.01L18.14,35.01z M16.53,34.28c-0.19-0.06-0.19-0.09-0.19-0.28
		c0.11-0.32,0.12-0.65,0.2-0.97c0.41,0.06,0.03,0.61,0.34,0.61c0.1-0.1,0.05-0.3,0.12-0.44c0.24,0.12,0.2,0.5,0.1,0.7
		C16.97,34.02,16.97,34.02,16.53,34.28L16.53,34.28z M18.73,33.2c-0.13-0.4,0.3-0.94,0.45-1.29c0.05-0.04,0.1-0.12,0.13-0.13
		c0,0.08,0.01,0.17,0.02,0.26C19.23,32.5,19.15,32.93,18.73,33.2L18.73,33.2z M17.67,32.94c-0.31-0.2,0.24-0.61,0.2-0.15
		C17.82,32.87,17.76,32.91,17.67,32.94L17.67,32.94z M16.71,32.46c-0.19-0.19-0.18-0.19-0.03-0.4
		C16.9,32.11,16.85,32.34,16.71,32.46L16.71,32.46z M17.28,32.42c-0.16-0.16-0.26-0.36-0.03-0.47c0.09,0.09,0.15,0.21,0.15,0.36
		C17.36,32.34,17.31,32.38,17.28,32.42L17.28,32.42z M18.14,32.36c-0.04-0.07-0.04-0.07-0.03-0.16c0.02-0.01,0.04-0.01,0.06-0.01
		c0,0.04,0.01,0.07,0.02,0.12C18.18,32.32,18.16,32.34,18.14,32.36L18.14,32.36z M16.12,32.11c-0.07-0.02-0.14-0.04-0.2-0.05
		c-0.08-0.16-0.1-0.29,0.05-0.4c0.21,0.06,0.27,0.15,0.22,0.37C16.17,32.06,16.14,32.08,16.12,32.11L16.12,32.11z M20.32,31.75
		c-0.02-0.02-0.03-0.03-0.04-0.04c0.03-0.1,0.03-0.1,0.12-0.24c0.33-0.21,0.43-0.67,0.76-0.86c0.02,0.01,0.04,0.03,0.06,0.04
		c0,0.36-0.45,0.84-0.74,1.06C20.43,31.73,20.37,31.74,20.32,31.75L20.32,31.75z M15.4,31.59c-0.17-0.12-0.33-0.31-0.18-0.52
		c0.2-0.02,0.38-0.11,0.43,0.2C15.6,31.5,15.6,31.57,15.4,31.59L15.4,31.59z M14.52,31.38c-0.03-0.03-0.05-0.05-0.07-0.07
		c0.02-0.17,0.04-0.34,0.23-0.15c0,0.04,0.01,0.09,0.02,0.14C14.65,31.35,14.65,31.35,14.52,31.38L14.52,31.38z M14.68,30.92
		c0-0.18-0.04-0.29,0.19-0.29c0.03,0.02,0.05,0.04,0.08,0.05c-0.01,0.05-0.01,0.11-0.01,0.17C14.89,30.88,14.89,30.88,14.68,30.92
		L14.68,30.92z M13.94,30.9c-0.2-0.12-0.41-0.41-0.16-0.59c0.35,0,0.38,0.17,0.36,0.47C14.1,30.86,14.02,30.87,13.94,30.9
		L13.94,30.9z M15.53,30.72c-0.04-0.01-0.09-0.02-0.12-0.02c0-0.02,0-0.04,0.01-0.04c0.04-0.01,0.09-0.02,0.13-0.03
		C15.54,30.66,15.53,30.69,15.53,30.72L15.53,30.72z M14.52,30.39c-0.05-0.02-0.11-0.04-0.15-0.05c-0.06-0.12-0.02-0.2,0.02-0.29
		c0.05-0.02,0.12-0.04,0.18-0.04C14.65,30.09,14.64,30.33,14.52,30.39L14.52,30.39z M18.14,30.38c-0.08-0.14-0.01-0.35,0.18-0.28
		c0,0.05,0,0.12,0,0.18C18.26,30.31,18.19,30.34,18.14,30.38L18.14,30.38z M15.1,30.25c-0.06-0.1-0.14-0.23-0.03-0.32
		c0.18,0.03,0.24,0.11,0.19,0.28C15.21,30.23,15.16,30.23,15.1,30.25L15.1,30.25z M13.37,30.2c-0.09-0.07-0.18-0.14-0.27-0.21
		c0-0.13-0.01-0.31,0.12-0.39c0.32,0,0.4,0.18,0.26,0.52C13.44,30.14,13.4,30.16,13.37,30.2L13.37,30.2z M13.94,29.93
		c-0.14-0.21-0.08-0.41,0.13-0.52c0.02,0.01,0.04,0.02,0.06,0.03c0.04,0.14,0.06,0.34-0.02,0.45
		C14.05,29.91,13.99,29.91,13.94,29.93L13.94,29.93z M14.68,29.74c-0.04-0.07-0.09-0.14-0.12-0.2c0.03-0.08,0.06-0.16,0.1-0.24
		c0.05,0.02,0.12,0.04,0.18,0.06C14.93,29.58,14.84,29.66,14.68,29.74L14.68,29.74z M12.78,29.58c-0.19-0.15-0.34-0.39-0.18-0.63
		l0-0.01c0,0-0.01,0-0.01,0c-0.09,0.02-0.17-0.09-0.2-0.25c-0.01-0.06-0.01-0.12,0.01-0.16c0-0.01-0.01-0.01-0.01-0.02
		c0.08-0.17,0.08-0.22,0.28-0.19c0.09,0.17,0.18,0.33,0.04,0.47c0,0.05,0,0.11,0,0.17c0.29,0.05,0.43,0.13,0.32,0.46
		C12.95,29.51,12.88,29.54,12.78,29.58L12.78,29.58z M13.58,29.33c-0.2-0.06-0.17-0.37-0.04-0.5c0.04-0.02,0.07-0.03,0.12-0.04
		C13.84,28.98,13.89,29.27,13.58,29.33L13.58,29.33z M14.25,29.27c-0.07-0.17-0.12-0.32-0.01-0.48c0.07,0.01,0.14,0.02,0.21,0.03
		c0.08,0.12,0.06,0.28-0.03,0.4C14.36,29.24,14.3,29.26,14.25,29.27L14.25,29.27z M13.51,28.72c-0.27-0.05-0.55-0.44-0.19-0.58
		c0.06-0.01,0.13-0.01,0.2-0.01c0.08,0.16,0.12,0.22,0.12,0.41C13.55,28.64,13.55,28.64,13.51,28.72L13.51,28.72z M14.1,28.56
		c-0.04-0.08-0.02-0.11-0.01-0.2c0.04,0,0.09,0,0.13,0c0,0.05,0,0.11,0.01,0.17C14.19,28.53,14.14,28.54,14.1,28.56L14.1,28.56z
		 M12.01,28.16c-0.16-0.06-0.28-0.36-0.2-0.52c0.23,0.04,0.4,0.18,0.4,0.43C12.13,28.1,12.07,28.13,12.01,28.16L12.01,28.16z
		 M12.8,28.06c-0.03-0.04-0.05-0.06-0.07-0.09c0.03-0.13,0.03-0.13,0.06-0.18c0.04,0,0.1,0.01,0.15,0.02c0,0.04,0.01,0.1,0.02,0.15
		C12.91,27.99,12.85,28.02,12.8,28.06L12.8,28.06z M13.49,28c-0.04-0.12-0.12-0.2,0.01-0.31c0.05,0.02,0.11,0.04,0.16,0.05
		C13.66,27.92,13.64,27.92,13.49,28L13.49,28z M12.34,27.63c-0.35-0.17-0.19-0.56,0.2-0.51c0.05,0.11,0.04,0.37-0.02,0.49
		C12.45,27.61,12.39,27.62,12.34,27.63L12.34,27.63z M13.23,27.45c-0.04-0.03-0.08-0.05-0.12-0.08c-0.16-0.48,0.44-0.84,0.44-0.12
		C13.43,27.39,13.4,27.41,13.23,27.45L13.23,27.45z M11.76,27.12c-0.2-0.14-0.17-0.17-0.15-0.41c0.13-0.13,0.26-0.2,0.44-0.09
		c0.04,0.16-0.01,0.35-0.11,0.47C11.88,27.1,11.82,27.11,11.76,27.12L11.76,27.12z M12.8,26.88c-0.37-0.22-0.32-0.62,0.09-0.72
		c0.27,0.09,0.15,0.4,0.09,0.6C12.92,26.8,12.85,26.84,12.8,26.88L12.8,26.88z M13.65,26.7c-0.09-0.19-0.27-0.36-0.12-0.58
		c0.37-0.12,0.36,0.23,0.34,0.51C13.83,26.66,13.83,26.66,13.65,26.7L13.65,26.7z M11.48,25.24c-0.15-0.12-0.31-0.17-0.39-0.34
		c0.15-0.15,0.55,0.04,0.66,0.2c0.12,0.02,0.23,0.04,0.35,0.05c0,0.01,0,0.03,0.01,0.04C11.88,25.21,11.68,25.22,11.48,25.24
		L11.48,25.24z M15.92,24.89c0.04-0.29,0.21-0.31,0.46-0.41c0.08,0,0.09,0.06,0.12,0.12c-0.07,0.14-0.17,0.23-0.33,0.28
		C16.09,24.88,16,24.89,15.92,24.89L15.92,24.89z M12.6,24.06c-0.43-0.12-0.64-0.52-0.41-0.93c0.36-0.18,0.88-0.28,1.08,0.14
		c0,0.22-0.06,0.5-0.22,0.66C12.91,23.97,12.76,24.01,12.6,24.06L12.6,24.06z"/>
	<path class="st1" d="M25.88,32.26c0.14,0.07,0.28,0.17,0.34,0.31c0.1,0.24-0.09,0.34-0.25,0.47c-0.03,0.06-0.07,0.11-0.1,0.17
		c-0.74,1.06-0.47,2.23,0.08,2.95c0.31,0.41,0.7,0.65,1.19,0.75c0.75,0.16,0.1-0.27-0.04-1.14c0-0.13,0-0.26,0-0.38
		c0.08-0.21,0.13-0.44,0.16-0.68c0.19-0.29,0.27-0.51,0.35-0.63c0.14-0.09,0.28-0.18,0.41-0.26c0.23,0.13,0.2,0.21,0.22,0.52
		c0.12,0.3,0.28,0.6,0.51,0.83c0.28,0.19,0.44,0.19,0.77,0.16c0.03-0.04,0.05-0.09,0.08-0.13c-0.02-0.05-0.04-0.1-0.05-0.14
		c-0.28-0.39-0.38-0.76,0.01-1.16c0.03,0.05,0.16,0.27,0.37,0.4c0.41,0.23,0.64,0.21,1.13,0.26c0.36,0.04,0.6,0.12,0.3-0.37
		c-0.47-0.31-0.41-0.64-0.3-1.16c0.13-0.18,0.33-0.37,0.6-0.55c1.44-0.96,3.13-2.07,4-4.15c0.24-0.57,0.4-1.18,0.41-1.49
		c0.13-0.07,0.33-0.04,0.42-0.14c0.35-0.38-0.23-0.57-0.34-0.84c-0.03-0.08-0.04-0.16-0.03-0.24c0.02-0.23,0.16-0.4,0.35-0.51
		c0.09-0.05,0.18-0.1,0.22-0.18c0.07-0.12,0.03-0.28-0.08-0.4c-0.1-0.11-0.22-0.19-0.34-0.21c-0.15-0.03-0.15-0.29-0.19-0.43
		l-0.18-0.49c-0.1-0.21-0.22-0.44-0.37-0.58c-0.18-0.36-0.45-0.78-0.8-1.1c-1.3-1.21-2.42-1.64-0.3,0.01
		c0.23,0.34,0.5,0.65,0.7,1.01c0.44,0.36,0.59,0.99,0.72,1.52c-0.09,0.37-0.36,0.38-0.68,0.51c-0.25,0.04-0.5,0.07-0.76,0.11
		c-0.95,0.04-1.9-0.08-2.84-0.23c-0.12-0.06-0.25-0.12-0.38-0.17c-0.06-0.09-0.12-0.17-0.2-0.25c-0.02-0.41,0.04-0.71,0.17-1.01
		c0.15-0.33,0.85-1.56,1.11-1.45c0.08,0.03,0.13,0.06,0.15,0.16c-0.04,0.46-0.06,1.2,0.22,1.6c0.05,0,0.1,0.01,0.14,0.02
		c0.1-0.29-0.08-0.69-0.1-1c0.01-0.22,0.02-0.44,0.02-0.65c0.11-0.73,0.29-0.93,0.54-1.18c-0.03-0.01-0.08,0-0.13,0.03
		c-0.19,0.1-0.33,0.2-0.44,0.39c-0.05,0.04-0.13,0.08-0.2,0.14c-0.29,0.21-0.58,0.53-0.83,0.78c-0.47,0.48-0.85,1.41-1.1,1.82
		c-0.11,0.11-0.21,0.22-0.32,0.34c-0.22,0.4,0.1,0.57,0.1,0.99c-0.04,0.04-0.07,0.09-0.12,0.14c-0.19,0.08-0.54,0.32-0.47,0.51
		c0.06,0.16,0.23,0.13,0.36,0.15c0.1,0.01,0.21,0.02,0.26,0.02c-0.06-0.05-0.1-0.12-0.13-0.2c-0.06-0.17-0.02-0.19,0.12-0.27
		c0.23-0.12,0.46-0.18,0.72-0.22c0.06-0.04,0.12-0.07,0.17-0.1c0.26,0,0.44,0.12,0.67,0.2c0.14,0,0.34-0.04,0.44,0.07
		c0.17-0.12,0.3-0.04,0.43,0.08c0.24-0.04,0.5-0.16,0.74-0.07c0.35-0.04,0.74,0.11,1.07,0.19c0.19,0.11,0.43,0.14,0.63,0.16
		c0.15,0.06,0.3,0.12,0.45,0.2c0.26,0.04,0.62,0.25,0.34,0.53c-0.39-0.1-0.77-0.33-1.16-0.48c-0.33-0.08-0.66-0.17-0.98-0.28
		c-0.19,0-0.38,0-0.58,0c-0.62,0.03-1.78-0.17-2.24-0.05c0.12,0.21,1.64,0.2,1.68,0.35c-0.02,0.55-0.1,1.05-0.2,1.6
		c-0.24,0.57-0.22,1.26-0.72,1.7c-0.51,0.65-0.96,1.66-1.77,1.99c-0.2,0.2-0.47,0.34-0.75,0.39c-0.35,0.2-0.35,0.2-0.4,0.26
		c-0.05-0.02-0.11-0.04-0.17-0.05c-0.34,0.05-0.54,0.06-0.59-0.3c0.02-0.24,0.02-0.24,0.05-0.32c1.15-0.68,1.81-1.11,2.4-2.86
		c0.06-0.38,0.12-0.76,0.19-1.15c0.02-0.4,0.03-0.79,0.04-1.18c0.06-0.19,0.09-0.21,0.27-0.28c0.01-0.04,0.01-0.04-0.04-0.13
		c-0.29,0.04-0.29,0.04-0.61,0.12c-0.03,0.04-0.05,0.09-0.08,0.13c0.05,0.14,0.1,0.28,0.14,0.44c0,0.31,0,0.62,0,0.94
		c-0.08,0.44-0.16,0.88-0.25,1.32c-0.26,0.44-0.61,0.8-1.05,1.05c-0.12,0-0.25,0.01-0.38,0.02c-0.19-0.09-0.28-0.36-0.52-0.28
		c-0.17,0.22,0.06,0.64-0.12,0.83c-0.14-0.02-0.23-0.05-0.36-0.13c-0.08-0.17-0.16-0.33-0.24-0.49c-0.43,0.15-0.33,0.65-0.42,1.01
		c-0.04,0.04-0.09,0.07-0.14,0.11c0.01,0.04,0.02,0.09,0.03,0.14c0.18,0.12,0.38,0.2,0.43,0.42c-0.05,0.14-0.11,0.35-0.24,0.44
		c0.29,0.21,0.34,0.72,0.28,1.05c-0.08,0.04-0.21,0.09-0.25,0.17c-0.09,0.03-0.18,0.05-0.27,0.08c-0.29,0.27-0.42,0.4-0.55,0.76
		c-0.13,0.18-0.21,0.5-0.28,0.71c0.04,0.01,0.08,0.02,0.12,0.03c0.03-0.11,0.05-0.23,0.12-0.3c0.03-0.12,0.05-0.24,0.08-0.36
		c0.18-0.09,0.28-0.3,0.38-0.47c0.23-0.18,0.23-0.18,0.33-0.29c0.16-0.06,0.34-0.07,0.51-0.08c0.22,0.11,0.2,0.08,0.2,0.35
		c-0.11,0.07-0.21,0.14-0.32,0.21c-0.2,0.2-0.39,0.39-0.6,0.6c-0.12,0.36-0.3,0.71-0.36,1.09c0.02,0.19,0.04,0.38,0.05,0.58
		c0.04,0.16,0.14,0.36-0.02,0.46c-0.6-0.1-0.75-0.86-0.89-1.34c-0.12-1.01,0.01-1.45,0.63-2.17c0.14-0.12,0.24-0.17,0.27-0.36
		c-0.92-0.32-2.07-2.42-0.59-3.48c0.52-0.17,0.25,0.65,0.22,0.89c0.03,0.1,0.04,0.2,0.06,0.29c0.07,0.11,0.13,0.21,0.2,0.33
		c0.1,0.04,0.21,0.12,0.28,0.2c0.01-0.04,0.02-0.07,0.02-0.11c-0.19-0.09-0.28-0.46-0.31-0.67c-0.04-0.6,0.2-1.08,0.76-1.25
		c0.03-0.04,0.05-0.07,0.08-0.11c-0.28-0.21-0.65-0.14-1,0c-0.47,0.19-0.81,0.39-1.1,0.81c-0.36,0.5-0.38,0.91-0.29,1.34
		C25.18,31.55,25.53,31.8,25.88,32.26L25.88,32.26z M34.26,23.22c-0.09,0-0.15,0.07-0.15,0.15c0,0.09,0.07,0.15,0.15,0.15
		c0.09,0,0.15-0.07,0.15-0.15C34.42,23.29,34.35,23.22,34.26,23.22L34.26,23.22z M32.96,28.06c-0.01,0.06,0.01,0.11,0.05,0.12
		c0.04,0.01,0.08-0.04,0.09-0.1c0.01-0.06-0.01-0.11-0.05-0.12C33.01,27.96,32.97,28,32.96,28.06L32.96,28.06z M32.9,27.38
		c-0.02,0.12,0.03,0.23,0.11,0.24c0.08,0.01,0.16-0.07,0.18-0.19c0.02-0.12-0.03-0.23-0.1-0.24C33,27.17,32.92,27.26,32.9,27.38
		L32.9,27.38z M30.83,32.47c-0.07,0.04-0.11,0.11-0.09,0.15c0.02,0.05,0.1,0.06,0.18,0.02c0.07-0.04,0.11-0.11,0.09-0.15
		C30.98,32.44,30.9,32.43,30.83,32.47L30.83,32.47z M30.34,31.53c-0.07,0.04-0.11,0.11-0.09,0.15c0.02,0.05,0.1,0.06,0.18,0.02
		c0.07-0.04,0.11-0.11,0.09-0.15C30.49,31.5,30.42,31.5,30.34,31.53L30.34,31.53z M31.61,31.77c-0.11,0.06-0.17,0.16-0.13,0.23
		c0.04,0.07,0.16,0.08,0.26,0.03c0.11-0.06,0.17-0.16,0.13-0.23C31.83,31.72,31.72,31.71,31.61,31.77L31.61,31.77z M31,31.11
		c-0.05,0-0.09,0.04-0.09,0.09c0,0.05,0.04,0.09,0.09,0.09c0.05,0,0.09-0.04,0.09-0.09C31.09,31.15,31.05,31.11,31,31.11L31,31.11z
		 M27.96,30.75c-0.08-0.07-0.17-0.12-0.28-0.13c-0.04,0.1-0.05,0.2-0.03,0.31C27.75,30.92,27.85,30.88,27.96,30.75L27.96,30.75z
		 M28.9,35.01c0.22-0.29-0.04-0.68-0.18-0.98c0-0.24,0.12-0.4,0.03-0.63c-0.04-0.03-0.1-0.05-0.15-0.07
		c-0.12,0.1-0.16,0.36-0.2,0.51C28.4,34.22,28.5,34.84,28.9,35.01L28.9,35.01z M30.51,34.28c0.19-0.06,0.19-0.09,0.19-0.28
		c-0.11-0.32-0.12-0.65-0.2-0.97c-0.41,0.06-0.03,0.61-0.34,0.61c-0.1-0.1-0.05-0.3-0.12-0.44c-0.24,0.12-0.2,0.5-0.1,0.7
		C30.07,34.02,30.07,34.02,30.51,34.28L30.51,34.28z M28.31,33.2c0.13-0.4-0.3-0.94-0.45-1.29c-0.05-0.04-0.1-0.12-0.13-0.13
		c0,0.08-0.01,0.17-0.02,0.26C27.81,32.5,27.89,32.93,28.31,33.2L28.31,33.2z M29.37,32.94c0.31-0.2-0.24-0.61-0.2-0.15
		C29.22,32.87,29.28,32.91,29.37,32.94L29.37,32.94z M30.33,32.46c0.19-0.19,0.18-0.19,0.03-0.4
		C30.14,32.11,30.19,32.34,30.33,32.46L30.33,32.46z M29.76,32.42c0.16-0.16,0.26-0.36,0.03-0.47c-0.09,0.09-0.15,0.21-0.15,0.36
		C29.68,32.34,29.72,32.38,29.76,32.42L29.76,32.42z M28.9,32.36c0.04-0.07,0.04-0.07,0.03-0.16c-0.02-0.01-0.04-0.01-0.06-0.01
		c0,0.04-0.01,0.07-0.02,0.12C28.86,32.32,28.88,32.34,28.9,32.36L28.9,32.36z M30.91,32.11c0.07-0.02,0.14-0.04,0.2-0.05
		c0.08-0.16,0.1-0.29-0.05-0.4c-0.21,0.06-0.27,0.15-0.22,0.37C30.87,32.06,30.9,32.08,30.91,32.11L30.91,32.11z M26.72,31.75
		c0.02-0.02,0.03-0.03,0.04-0.04c-0.03-0.1-0.03-0.1-0.12-0.24c-0.33-0.21-0.43-0.67-0.76-0.86c-0.02,0.01-0.04,0.03-0.06,0.04
		c0,0.36,0.45,0.84,0.74,1.06C26.61,31.73,26.67,31.74,26.72,31.75L26.72,31.75z M31.63,31.59c0.17-0.12,0.33-0.31,0.18-0.52
		c-0.2-0.02-0.38-0.11-0.43,0.2C31.44,31.5,31.44,31.57,31.63,31.59L31.63,31.59z M32.52,31.38c0.03-0.03,0.05-0.05,0.07-0.07
		c-0.02-0.17-0.04-0.34-0.23-0.15c0,0.04-0.01,0.09-0.02,0.14C32.39,31.35,32.39,31.35,32.52,31.38L32.52,31.38z M32.36,30.92
		c0-0.18,0.04-0.29-0.19-0.29c-0.03,0.02-0.05,0.04-0.08,0.05c0.01,0.05,0.01,0.11,0.01,0.17C32.15,30.88,32.15,30.88,32.36,30.92
		L32.36,30.92z M33.1,30.9c0.2-0.12,0.41-0.41,0.16-0.59c-0.35,0-0.38,0.17-0.36,0.47C32.94,30.86,33.02,30.87,33.1,30.9L33.1,30.9z
		 M31.51,30.72c0.04-0.01,0.09-0.02,0.12-0.02c0-0.02,0-0.04-0.01-0.04c-0.04-0.01-0.09-0.02-0.13-0.03
		C31.5,30.66,31.51,30.69,31.51,30.72L31.51,30.72z M32.52,30.39c0.05-0.02,0.11-0.04,0.15-0.05c0.06-0.12,0.02-0.2-0.02-0.29
		c-0.05-0.02-0.12-0.04-0.18-0.04C32.39,30.09,32.4,30.33,32.52,30.39L32.52,30.39z M28.9,30.38c0.08-0.14,0.01-0.35-0.18-0.28
		c0,0.05,0,0.12,0,0.18C28.78,30.31,28.84,30.34,28.9,30.38L28.9,30.38z M31.94,30.25c0.06-0.1,0.14-0.23,0.03-0.32
		c-0.18,0.03-0.24,0.11-0.19,0.28C31.83,30.23,31.88,30.23,31.94,30.25L31.94,30.25z M33.67,30.2c0.09-0.07,0.18-0.14,0.27-0.21
		c0-0.13,0.01-0.31-0.12-0.39c-0.32,0-0.4,0.18-0.26,0.52C33.6,30.14,33.63,30.16,33.67,30.2L33.67,30.2z M33.1,29.93
		c0.14-0.21,0.08-0.41-0.13-0.52c-0.02,0.01-0.04,0.02-0.06,0.03c-0.04,0.14-0.06,0.34,0.02,0.45
		C32.99,29.91,33.05,29.91,33.1,29.93L33.1,29.93z M32.36,29.74c0.04-0.07,0.09-0.14,0.12-0.2c-0.03-0.08-0.06-0.16-0.1-0.24
		c-0.05,0.02-0.12,0.04-0.18,0.06C32.11,29.58,32.19,29.66,32.36,29.74L32.36,29.74z M34.26,29.58c0.19-0.15,0.34-0.39,0.18-0.63
		l0-0.01c0,0,0.01,0,0.01,0c0.09,0.02,0.17-0.09,0.2-0.25c0.01-0.06,0.01-0.12-0.01-0.16c0-0.01,0.01-0.01,0.01-0.02
		c-0.08-0.17-0.08-0.22-0.28-0.19c-0.09,0.17-0.18,0.33-0.04,0.47c0,0.05,0,0.11,0,0.17c-0.29,0.05-0.43,0.13-0.32,0.46
		C34.09,29.51,34.16,29.54,34.26,29.58L34.26,29.58z M33.46,29.33c0.2-0.06,0.17-0.37,0.04-0.5c-0.04-0.02-0.07-0.03-0.12-0.04
		C33.2,28.98,33.15,29.27,33.46,29.33L33.46,29.33z M32.79,29.27c0.07-0.17,0.12-0.32,0.01-0.48c-0.07,0.01-0.14,0.02-0.21,0.03
		c-0.08,0.12-0.06,0.28,0.03,0.4C32.67,29.24,32.74,29.26,32.79,29.27L32.79,29.27z M33.53,28.72c0.27-0.05,0.55-0.44,0.19-0.58
		c-0.06-0.01-0.13-0.01-0.2-0.01c-0.08,0.16-0.12,0.22-0.12,0.41C33.49,28.64,33.49,28.64,33.53,28.72L33.53,28.72z M32.94,28.56
		c0.04-0.08,0.02-0.11,0.01-0.2c-0.04,0-0.09,0-0.13,0c0,0.05,0,0.11-0.01,0.17C32.85,28.53,32.9,28.54,32.94,28.56L32.94,28.56z
		 M35.03,28.16c0.16-0.06,0.28-0.36,0.2-0.52c-0.23,0.04-0.4,0.18-0.4,0.43C34.91,28.1,34.97,28.13,35.03,28.16L35.03,28.16z
		 M34.24,28.06c0.03-0.04,0.05-0.06,0.07-0.09c-0.03-0.13-0.03-0.13-0.06-0.18c-0.04,0-0.1,0.01-0.15,0.02
		c0,0.04-0.01,0.1-0.02,0.15C34.13,27.99,34.19,28.02,34.24,28.06L34.24,28.06z M33.55,28c0.04-0.12,0.12-0.2-0.01-0.31
		c-0.05,0.02-0.11,0.04-0.16,0.05C33.38,27.92,33.4,27.92,33.55,28L33.55,28z M34.7,27.63c0.35-0.17,0.19-0.56-0.2-0.51
		c-0.05,0.11-0.04,0.37,0.02,0.49C34.59,27.61,34.65,27.62,34.7,27.63L34.7,27.63z M33.81,27.45c0.04-0.03,0.08-0.05,0.12-0.08
		c0.16-0.48-0.44-0.84-0.44-0.12C33.61,27.39,33.64,27.41,33.81,27.45L33.81,27.45z M35.28,27.12c0.2-0.14,0.17-0.17,0.15-0.41
		c-0.13-0.13-0.26-0.2-0.44-0.09c-0.04,0.16,0.01,0.35,0.11,0.47C35.15,27.1,35.22,27.11,35.28,27.12L35.28,27.12z M34.24,26.88
		c0.37-0.22,0.32-0.62-0.09-0.72c-0.27,0.09-0.15,0.4-0.09,0.6C34.12,26.8,34.19,26.84,34.24,26.88L34.24,26.88z M33.39,26.7
		c0.09-0.19,0.27-0.36,0.12-0.58c-0.37-0.12-0.36,0.23-0.34,0.51C33.21,26.66,33.21,26.66,33.39,26.7L33.39,26.7z M35.56,25.24
		c0.15-0.12,0.31-0.17,0.39-0.34c-0.15-0.15-0.55,0.04-0.66,0.2c-0.12,0.02-0.23,0.04-0.35,0.05c0,0.01,0,0.03-0.01,0.04
		C35.15,25.21,35.36,25.22,35.56,25.24L35.56,25.24z M31.12,24.89c-0.04-0.29-0.21-0.31-0.46-0.41c-0.08,0-0.09,0.06-0.12,0.12
		c0.07,0.14,0.17,0.23,0.33,0.28C30.95,24.88,31.04,24.89,31.12,24.89L31.12,24.89z M34.43,24.06c0.43-0.12,0.64-0.52,0.41-0.93
		c-0.36-0.18-0.88-0.28-1.08,0.14c0,0.22,0.06,0.5,0.22,0.66C34.13,23.97,34.28,24.01,34.43,24.06L34.43,24.06z"/>
	<path class="st1" d="M23.52,3.58c11.33,0,20.52,9.19,20.52,20.52s-9.19,20.52-20.52,20.52S3,35.42,3,24.09S12.19,3.58,23.52,3.58
		L23.52,3.58z M23.52,3.92c11.14,0,20.17,9.03,20.17,20.17s-9.03,20.17-20.17,20.17S3.34,35.24,3.34,24.09S12.38,3.92,23.52,3.92
		L23.52,3.92z"/>
	<path class="st2" d="M23.52,5.23L23.52,5.23L23.52,5.23c5.21,0,9.93,2.11,13.34,5.53c3.41,3.41,5.53,8.13,5.53,13.34h0v0v0h0
		c0,5.21-2.11,9.93-5.53,13.34c-3.41,3.41-8.13,5.53-13.34,5.53v0h0h0v0c-5.21,0-9.93-2.11-13.34-5.53
		C6.77,34.02,4.65,29.3,4.65,24.1h0v0v0h0c0-5.21,2.11-9.93,5.53-13.34C13.59,7.34,18.31,5.23,23.52,5.23L23.52,5.23L23.52,5.23
		L23.52,5.23z M23.52,5.47L23.52,5.47L23.52,5.47L23.52,5.47L23.52,5.47c-5.14,0-9.8,2.08-13.17,5.45C6.98,14.3,4.9,18.95,4.9,24.09
		h0v0v0h0c0,5.14,2.08,9.8,5.45,13.17c3.37,3.37,8.03,5.45,13.17,5.45v0h0h0v0c5.14,0,9.8-2.08,13.17-5.45
		c3.37-3.37,5.45-8.03,5.45-13.17h0v0v0h0c0-5.14-2.08-9.8-5.45-13.17C33.32,7.56,28.66,5.47,23.52,5.47L23.52,5.47z"/>
	<polygon class="st2" points="8.2,29.3 8.79,30.11 9.74,29.8 9.15,30.61 9.74,31.43 8.79,31.12 8.2,31.93 8.2,30.92 7.25,30.61 
		8.2,30.31 8.2,29.3 	"/>
	<polygon class="st2" points="38.84,29.3 38.25,30.11 37.3,29.8 37.88,30.61 37.3,31.43 38.25,31.12 38.84,31.93 38.84,30.92 
		39.79,30.61 38.84,30.31 38.84,29.3 	"/>
	<polygon class="st2" points="23.7,12.84 23.7,23.24 23.34,23.24 23.34,12.84 23.7,12.84 	"/>
	<path class="st2" d="M22.71,11.98l0.03,0v0c0.04,0,0.08,0.02,0.1,0.06l0.67,1.47c0.01,0.02,0.02,0.04,0.01,0.07
		c-0.01,0.06-0.06,0.1-0.12,0.09c-0.86-0.13-1.72-0.02-2.58,0.25c-0.87,0.27-1.73,0.7-2.6,1.2c-1.23,0.93-2.21,1.12-3.14,1.29
		c-0.66,0.12-1.29,0.24-1.96,0.62l0,0c-0.04,0.02-0.08,0.02-0.12-0.01c-0.05-0.04-0.06-0.1-0.02-0.15c0.42-0.55,1.18-0.9,2.02-1.29
		c0.84-0.39,1.76-0.82,2.49-1.51l0,0l0,0c0.13-0.14,0.27-0.28,0.42-0.42c0.03-0.02,0.06-0.05,0.09-0.08
		c0.03-0.02,0.06-0.05,0.1-0.08l0,0l0,0c0.72-0.59,1.71-1.12,2.99-1.37c0.25-0.05,0.51-0.09,0.78-0.11
		C22.13,11.99,22.41,11.98,22.71,11.98L22.71,11.98z M20.42,12.51c0.11,0.13,0.22,0.29,0.32,0.47c0.12,0.23,0.19,0.47,0.22,0.67
		c0.03-0.01,0.06-0.02,0.09-0.02c0.06-0.17,0.09-0.36,0.09-0.57c0-0.26-0.05-0.5-0.13-0.69C20.8,12.41,20.61,12.45,20.42,12.51
		L20.42,12.51z M20.73,13.72c-0.02-0.2-0.08-0.42-0.19-0.64c-0.1-0.2-0.22-0.37-0.36-0.49c-0.79,0.27-1.44,0.66-1.95,1.08l0,0
		c-0.03,0.02-0.06,0.05-0.09,0.08c-0.03,0.02-0.06,0.05-0.09,0.08c-0.15,0.14-0.29,0.27-0.41,0.41l-0.01,0.01l0,0l0,0l0,0l0,0l0,0
		c-0.76,0.72-1.7,1.15-2.55,1.55c-0.55,0.25-1.06,0.49-1.45,0.77c0.48-0.18,0.94-0.27,1.41-0.36c0.91-0.17,1.86-0.35,3.05-1.26
		c0.01,0,0.01-0.01,0.02-0.01C18.98,14.43,19.86,14,20.73,13.72L20.73,13.72z M21.22,12.32c0.08,0.2,0.13,0.46,0.13,0.74
		c0,0.18-0.02,0.36-0.06,0.51c0.65-0.15,1.29-0.21,1.94-0.14l-0.57-1.23c-0.27,0-0.53,0.01-0.78,0.04
		C21.65,12.25,21.43,12.28,21.22,12.32L21.22,12.32z"/>
	<path class="st1" d="M18.02,13.7c0.01,0.14,0.03,0.3,0.07,0.46c0.07,0.29,0.2,0.54,0.33,0.72c0.07-0.04,0.13-0.07,0.2-0.11
		c-0.14-0.17-0.25-0.4-0.32-0.66c-0.05-0.21-0.07-0.41-0.06-0.59c-0.03,0.02-0.05,0.04-0.08,0.07
		C18.12,13.62,18.07,13.66,18.02,13.7L18.02,13.7z"/>
	<path class="st1" d="M17.56,14.15c0.03,0.1,0.06,0.21,0.1,0.31c0.11,0.26,0.25,0.48,0.4,0.64c0.03-0.02,0.06-0.05,0.09-0.07
		l0.1-0.06c-0.15-0.15-0.29-0.35-0.38-0.59c-0.06-0.14-0.1-0.29-0.12-0.43C17.68,14.02,17.62,14.08,17.56,14.15L17.56,14.15z"/>
	<polygon class="st2" points="14.93,16.25 23.5,19.8 23.43,19.97 14.86,16.42 14.93,16.25 	"/>
	<polygon class="st1" points="14.73,15.88 14.9,16.34 13.36,16.72 13.56,16.43 14.73,15.88 	"/>
	<path class="st2" d="M24.33,11.98l-0.03,0v0c-0.04,0-0.08,0.02-0.1,0.06l-0.67,1.47c-0.01,0.02-0.02,0.04-0.01,0.07
		c0.01,0.06,0.06,0.1,0.12,0.09c0.86-0.13,1.72-0.02,2.58,0.25c0.87,0.27,1.73,0.7,2.6,1.2c1.23,0.93,2.21,1.12,3.14,1.29
		c0.66,0.12,1.29,0.24,1.96,0.62l0,0c0.04,0.02,0.08,0.02,0.12-0.01c0.05-0.04,0.06-0.1,0.02-0.15c-0.42-0.55-1.18-0.9-2.02-1.29
		c-0.84-0.39-1.76-0.82-2.49-1.51l0,0l0,0c-0.13-0.14-0.27-0.28-0.42-0.42c-0.03-0.02-0.06-0.05-0.09-0.08
		c-0.03-0.02-0.06-0.05-0.1-0.08l0,0l0,0c-0.72-0.59-1.71-1.12-2.99-1.37c-0.25-0.05-0.51-0.09-0.78-0.11
		C24.91,11.99,24.62,11.98,24.33,11.98L24.33,11.98z M26.62,12.51c-0.11,0.13-0.22,0.29-0.32,0.47c-0.12,0.23-0.19,0.47-0.22,0.67
		c-0.03-0.01-0.06-0.02-0.09-0.02c-0.06-0.17-0.09-0.36-0.09-0.57c0-0.26,0.05-0.5,0.13-0.69C26.24,12.41,26.43,12.45,26.62,12.51
		L26.62,12.51z M26.3,13.72c0.02-0.2,0.08-0.42,0.19-0.64c0.1-0.2,0.22-0.37,0.36-0.49c0.79,0.27,1.44,0.66,1.95,1.08l0,0
		c0.03,0.02,0.06,0.05,0.09,0.08c0.03,0.02,0.06,0.05,0.09,0.08c0.15,0.14,0.29,0.27,0.41,0.41l0.01,0.01l0,0l0,0l0,0l0,0l0,0
		c0.76,0.72,1.7,1.15,2.55,1.55c0.55,0.25,1.06,0.49,1.45,0.77c-0.48-0.18-0.94-0.27-1.41-0.36c-0.91-0.17-1.86-0.35-3.05-1.26
		c-0.01,0-0.01-0.01-0.02-0.01C28.06,14.43,27.18,14,26.3,13.72L26.3,13.72z M25.82,12.32c-0.08,0.2-0.13,0.46-0.13,0.74
		c0,0.18,0.02,0.36,0.06,0.51c-0.65-0.15-1.29-0.21-1.94-0.14l0.57-1.23c0.27,0,0.53,0.01,0.78,0.04
		C25.38,12.25,25.6,12.28,25.82,12.32L25.82,12.32z"/>
	<path class="st1" d="M29.02,13.7c-0.01,0.14-0.03,0.3-0.07,0.46c-0.07,0.29-0.2,0.54-0.33,0.72c-0.07-0.04-0.13-0.07-0.2-0.11
		c0.14-0.17,0.25-0.4,0.32-0.66c0.05-0.21,0.07-0.41,0.06-0.59c0.03,0.02,0.05,0.04,0.08,0.07C28.92,13.62,28.97,13.66,29.02,13.7
		L29.02,13.7z"/>
	<path class="st1" d="M29.47,14.15c-0.03,0.1-0.06,0.21-0.1,0.31c-0.11,0.26-0.25,0.48-0.39,0.64c-0.03-0.02-0.06-0.05-0.09-0.07
		l-0.1-0.06c0.15-0.15,0.29-0.35,0.38-0.59c0.06-0.14,0.1-0.29,0.12-0.43C29.35,14.02,29.42,14.08,29.47,14.15L29.47,14.15z"/>
	<polygon class="st2" points="32.11,16.25 23.54,19.8 23.61,19.97 32.18,16.42 32.11,16.25 	"/>
	<polygon class="st1" points="32.31,15.88 32.14,16.34 33.68,16.72 33.48,16.43 32.31,15.88 	"/>
	<path class="st2" d="M22.44,12.1l0.96-1.6c0.04-0.07,0.13-0.09,0.2-0.05c0.02,0.01,0.04,0.03,0.05,0.05l0.96,1.6
		c0.03,0.05,0.03,0.1,0,0.15l-0.96,1.6c-0.04,0.07-0.13,0.09-0.2,0.05c-0.02-0.01-0.04-0.03-0.05-0.05l-0.96-1.6
		C22.41,12.2,22.41,12.14,22.44,12.1L22.44,12.1L22.44,12.1z"/>
	<polygon class="st3" points="23.52,10.85 22.73,12.17 23.52,13.49 24.31,12.17 23.52,10.85 	"/>
	<path class="st1" d="M24.86,37.66c1.04-4.67-1.53-5.54-0.21-10.76c0.02-0.09,0.04-0.17,0.06-0.26c0.02-0.09,0.03-0.18,0.05-0.27
		c0.04-0.25,0.05-0.49,0.05-0.72c0.02-0.98,0.03-1.75,0.84-2.42c0.28-0.23,0.59-0.43,0.92-0.62c2.79-1.51,7.3-1.53,9.49-3.85
		c-0.33-0.77-0.73-1.51-1.19-2.2c-1.76,3.21-8.52,1.7-11.4,5.34c-2.95-3.9-9.48-2.25-11.32-5.35c-0.46,0.69-0.85,1.42-1.18,2.19
		c3.78,3.29,7.38,1.52,10.24,4.57c0.95,0.89,1.15,2.03,0.97,3.32c-0.2,1.43-0.39,2.61-0.37,3.94c0.01,0.83,0.03,1.56,0.35,2.31
		c0.53,1.24,0.66,3.24-0.12,4.75c0.49,0.05,0.98,0.08,1.48,0.08v0h0h0v0C23.97,37.73,24.42,37.71,24.86,37.66L24.86,37.66z"/>
	<path class="st2" d="M23.52,10.22L23.52,10.22L23.52,10.22c3.83,0,7.3,1.55,9.81,4.07c2.51,2.51,4.06,5.98,4.07,9.81h0v0v0h0
		c0,3.83-1.55,7.3-4.07,9.81c-2.51,2.51-5.98,4.06-9.81,4.07v0h0h0v0c-3.83,0-7.3-1.55-9.81-4.07c-2.51-2.51-4.06-5.98-4.07-9.81h0
		v0v0h0c0-3.83,1.55-7.3,4.07-9.81C16.22,11.77,19.69,10.22,23.52,10.22L23.52,10.22L23.52,10.22L23.52,10.22z M23.52,10.46
		L23.52,10.46L23.52,10.46L23.52,10.46L23.52,10.46c-3.76,0-7.17,1.53-9.64,3.99c-2.47,2.47-3.99,5.88-3.99,9.64h0v0v0h0
		c0,3.76,1.53,7.17,3.99,9.64c2.47,2.47,5.88,3.99,9.64,3.99v0h0h0v0c3.76,0,7.17-1.53,9.64-3.99c2.47-2.47,3.99-5.88,3.99-9.64h0v0
		v0h0c0-3.76-1.53-7.17-3.99-9.64C30.69,11.99,27.28,10.46,23.52,10.46L23.52,10.46z"/>
	<path class="st1" d="M29.67,8.12c6.04,2.33,10.43,7.98,10.92,14.72l-0.41,0.37c-0.02-0.37-0.05-0.74-0.1-1.11
		c-0.24,0.07-0.49,0.15-0.74,0.19c-0.23,0.04-0.44-0.07-0.64-0.32c-0.06-0.08-0.14-0.21-0.24-0.39l-0.28,0.56L38,22.5l-0.05,0.13
		c-0.09,0.25-0.16,0.42-0.19,0.52l-0.19-0.35c-0.01-0.03,0.07-0.24,0.24-0.61c0.18-0.41,0.36-0.77,0.53-1.09
		c0.22-0.38,0.4-0.58,0.52-0.61c0.04-0.01,0.08,0.01,0.11,0.05c0.04,0.05,0.06,0.11,0.07,0.16l0.11,0.7l0.81-0.14
		c-0.09-0.54-0.21-1.07-0.35-1.6l-2.46,0.71l0.07-1.01l2.11-0.61c-0.32-0.95-0.72-1.86-1.2-2.72l-0.69,0.41
		c0.07,0.07,0.12,0.13,0.14,0.16c0.11,0.12,0.18,0.22,0.22,0.29c0.16,0.27,0.24,0.57,0.25,0.89c0.01,0.35-0.09,0.59-0.29,0.71
		c-0.15,0.09-0.36,0.12-0.62,0.1c-0.07-0.01-0.13-0.03-0.18-0.04c-0.05-0.01-0.09-0.02-0.13-0.03l-0.11-0.84
		c0.04,0.07,0.17,0.15,0.37,0.24c0.25,0.11,0.44,0.12,0.58,0.04c0.13-0.08,0.1-0.27-0.09-0.59c-0.13-0.22-0.28-0.39-0.45-0.51
		c-0.07-0.05-0.14-0.08-0.21-0.11l-0.96,0.57l-0.16-0.98l0.4-0.24c-0.08-0.06-0.15-0.13-0.21-0.2c-0.15-0.16-0.28-0.33-0.38-0.49
		c-0.16-0.28-0.24-0.58-0.24-0.91c0-0.33,0.09-0.55,0.26-0.65c0.15-0.09,0.36-0.03,0.61,0.18c0.25,0.21,0.47,0.48,0.66,0.8
		l-0.11,0.71c0.01-0.01-0.03-0.1-0.14-0.27c-0.16-0.27-0.32-0.49-0.47-0.66c-0.22-0.23-0.39-0.31-0.52-0.23
		c-0.09,0.05-0.12,0.14-0.08,0.26c0.02,0.05,0.07,0.16,0.16,0.31c0.15,0.25,0.35,0.47,0.61,0.66c0.08,0.06,0.19,0.13,0.34,0.2
		l0.95-0.56c-0.63-1.01-1.37-1.95-2.2-2.79l-0.25,0.3c-0.04,0.04-0.09,0.09-0.14,0.15c-0.05,0.06-0.09,0.1-0.1,0.11
		c-0.16,0.16-0.4,0.2-0.71,0.12c-0.1-0.03-0.24-0.09-0.42-0.18l0.1,0.62l0.08,0.4l0.03,0.14c0.07,0.26,0.12,0.44,0.15,0.54
		l-0.36-0.17c-0.03-0.02-0.08-0.24-0.17-0.63c-0.1-0.44-0.17-0.83-0.21-1.19c-0.04-0.44-0.02-0.71,0.07-0.8
		c0.03-0.03,0.07-0.04,0.12-0.02c0.06,0.02,0.11,0.05,0.15,0.09l0.5,0.5l0.55-0.56c-0.5-0.46-1.03-0.9-1.59-1.3l-1.32,2.13
		l-0.63-0.8l0.53-0.87l-0.16-0.08c-0.04-0.02-0.07-0.04-0.11-0.06l-0.09-0.06l-0.09-0.06l-0.09-0.06c-0.13-0.1-0.27-0.25-0.41-0.45
		l-0.02-0.03l-0.03-0.04l-0.03-0.05c-0.06,0.02-0.1,0.03-0.12,0.03c-0.09,0.02-0.16,0.03-0.21,0.03c-0.03,0-0.07-0.01-0.14-0.01
		c-0.07-0.01-0.13-0.02-0.18-0.03l-0.17-0.04l0.19,0.6l0.34,0.99l-0.48-0.14c-0.03-0.02-0.11-0.21-0.23-0.57
		c-0.13-0.39-0.24-0.74-0.32-1.07c-0.09-0.4-0.11-0.65-0.05-0.75c0.05-0.09,0.15-0.09,0.29,0l0.6,0.37l0.33-0.53
		c-0.32-0.15-0.65-0.3-0.99-0.43L29.67,8.12L29.67,8.12z M24.02,8.37c-0.1,0.06-0.23,0.12-0.38,0.19l-0.24,0.1
		c-0.03-0.05-0.09-0.1-0.17-0.14c-0.1-0.06-0.24-0.1-0.41-0.12c-0.16-0.01-0.3,0-0.43,0.04c-0.13,0.05-0.19,0.12-0.2,0.22
		c-0.01,0.16,0.1,0.28,0.34,0.37c0.16,0.06,0.38,0.1,0.65,0.13l0.08,0.01c0.04,0,0.07,0.01,0.09,0.01c0.06,0.01,0.1,0.01,0.11,0.01
		l0.64,0.79l0.45-0.13l-0.71-0.72c0.27-0.05,0.49-0.15,0.69-0.3c0.21-0.17,0.33-0.38,0.35-0.64c0.03-0.31-0.09-0.6-0.35-0.88
		c-0.28-0.29-0.63-0.46-1.05-0.5c-0.31-0.03-0.57,0-0.79,0.1c-0.22,0.09-0.34,0.22-0.35,0.39c-0.02,0.25,0.24,0.5,0.78,0.75
		c0.41,0.18,0.7,0.29,0.86,0.3L24.02,8.37L24.02,8.37z M25.9,7.58l-0.37,2.08l0.88,0.51l0.43-2.43c0.31,0.06,0.62,0.13,0.92,0.21
		l-0.15-0.49c-0.92-0.23-1.88-0.38-2.85-0.45l0.27,0.46C25.32,7.51,25.61,7.54,25.9,7.58L25.9,7.58z M14.44,12.24l0.62,0.1
		l1.41-1.68l0.3,0.5l1-0.17l-1.21-2.07c0.98-0.45,2.01-0.81,3.09-1.07l0.08,0.37l-1.04,0.23c-0.22,0.05-0.38,0.14-0.49,0.28
		c-0.11,0.14-0.15,0.28-0.12,0.43c0.05,0.25,0.3,0.44,0.73,0.59c0.43,0.15,0.85,0.18,1.26,0.09l0.1-0.02
		c0.04-0.01,0.08-0.02,0.12-0.03l0.11-0.04l0.11-0.04l0.47,0.43l0.64-0.14L20.9,9.57c0.06-0.05,0.1-0.09,0.13-0.13
		c0.09-0.11,0.12-0.25,0.09-0.39c-0.02-0.1-0.1-0.16-0.24-0.19c-0.14-0.03-0.3-0.03-0.46,0.01c-0.14,0.03-0.25,0.08-0.35,0.14
		c-0.09,0.07-0.12,0.15-0.1,0.23c0,0.02,0.01,0.03,0.01,0.04c0,0.01,0.02,0.03,0.04,0.06l0.03,0.04l0.03,0.03
		c-0.11,0.04-0.23,0.08-0.34,0.1c-0.25,0.05-0.45,0.07-0.62,0.04c-0.2-0.03-0.32-0.1-0.35-0.23c-0.03-0.13-0.01-0.25,0.05-0.34
		C18.88,8.9,19,8.83,19.18,8.8l1.48-0.32l-0.17-0.78c0.46-0.08,0.93-0.15,1.4-0.2l-0.24-0.41c-0.46,0.05-0.92,0.12-1.38,0.21
		l-0.4-0.18c-0.4-0.17-0.74-0.31-1.01-0.4c-0.11-0.04-0.23-0.06-0.34-0.07c-0.12,0-0.25,0.02-0.39,0.06l-1.07,0.32l0.49,0.37
		c0.02-0.01,0.06-0.03,0.11-0.06c0.05-0.03,0.09-0.04,0.13-0.06c0.1-0.04,0.21-0.08,0.33-0.12c0.21-0.06,0.39-0.1,0.54-0.12
		c0.15-0.02,0.27-0.01,0.35,0.03l0.82,0.31c-2.55,0.56-4.88,1.69-6.87,3.24v0l0.53,0.14c0.15-0.11,0.3-0.22,0.46-0.33l0.45,0.77
		c0.1,0.01,0.2,0.02,0.3,0.02c0.09,0.01,0.16,0.01,0.21,0.01c0.25-0.01,0.46-0.04,0.64-0.09L14.44,12.24L14.44,12.24z M15.71,9.35
		l0.43,0.74c-0.17,0.31-0.44,0.59-0.83,0.85l-0.59-1.01C15.04,9.72,15.37,9.53,15.71,9.35L15.71,9.35z M24.27,7.78
		c0,0.05-0.01,0.1-0.02,0.13c-0.01,0.03-0.02,0.06-0.02,0.08L24.2,8.09l-0.03,0.09c-0.02,0.01-0.05,0.01-0.08,0
		c-0.13-0.01-0.38-0.11-0.74-0.3C23.11,7.75,22.99,7.63,23,7.52c0.01-0.09,0.07-0.16,0.19-0.22c0.12-0.05,0.26-0.07,0.44-0.06
		c0.22,0.02,0.39,0.08,0.5,0.17C24.23,7.52,24.28,7.64,24.27,7.78L24.27,7.78z M6.44,23.02c0.26-4.25,2.07-8.07,4.87-10.92h0.62
		c-0.23,0.23-0.46,0.46-0.68,0.7l0.22,0.11c0.05,0.04,0.1,0.07,0.17,0.12c0.07,0.04,0.11,0.07,0.12,0.09
		c0.18,0.14,0.25,0.37,0.2,0.69c-0.02,0.1-0.06,0.25-0.12,0.44l0.6-0.17l0.39-0.13l0.13-0.05c0.25-0.1,0.42-0.17,0.51-0.22
		l-0.12,0.38c-0.02,0.03-0.23,0.11-0.61,0.25c-0.42,0.15-0.81,0.27-1.16,0.35c-0.43,0.1-0.7,0.11-0.8,0.03
		c-0.03-0.02-0.05-0.06-0.04-0.12c0.01-0.06,0.04-0.12,0.07-0.16l0.43-0.56l-0.54-0.42c-0.41,0.49-0.8,1.01-1.15,1.55l2.11,1.08
		l-0.76,0.69l-1.06-0.54l-0.53,1.03c-0.08,0.16-0.12,0.31-0.13,0.45c-0.01,0.14,0.03,0.24,0.12,0.28c0.1,0.05,0.23,0.07,0.37,0.05
		c0.15-0.02,0.32-0.07,0.52-0.15c0.34-0.14,0.52-0.24,0.55-0.3l-0.1,0.42c-0.15,0.09-0.27,0.17-0.38,0.23
		c-0.11,0.06-0.21,0.11-0.29,0.15c-0.49,0.23-0.83,0.29-1.03,0.19c-0.06-0.03-0.09-0.07-0.11-0.14c-0.01-0.03-0.02-0.1-0.04-0.22
		l-0.46,0.89l-0.43-0.06l1.55-3.03l-0.41-0.21c-0.75,1.3-1.33,2.71-1.71,4.2l0.15-0.06c0.15-0.05,0.27-0.06,0.37-0.03
		c0.12,0.03,0.21,0.11,0.27,0.24c0.01,0.01,0.02,0.04,0.03,0.07c0.12-0.1,0.21-0.17,0.27-0.2c0.21-0.12,0.4-0.15,0.57-0.1
		c0.18,0.05,0.3,0.21,0.36,0.47c0.06,0.26,0.04,0.57-0.05,0.9c-0.12,0.42-0.37,0.79-0.74,1.1c-0.27,0.23-0.58,0.41-0.95,0.55
		c-0.06,0.02-0.12,0.05-0.17,0.06v-0.4c0.11-0.03,0.26-0.09,0.44-0.18c0.48-0.24,0.78-0.58,0.91-1.01c0.07-0.24,0.08-0.47,0.04-0.67
		c-0.04-0.2-0.12-0.32-0.24-0.35c-0.11-0.03-0.22,0.02-0.35,0.16l0.01,0.15c0.01,0.09,0.01,0.17,0,0.24
		c-0.01,0.14-0.03,0.27-0.07,0.41l-0.6,0.37c0-0.01,0.01-0.03,0.02-0.07l0.03-0.09c0.08-0.27,0.12-0.51,0.15-0.74
		c0.03-0.32-0.02-0.5-0.14-0.53c-0.06-0.02-0.15,0-0.28,0.05l-0.1,0.05c-0.18,0.77-0.3,1.57-0.36,2.38L6.44,23.02L6.44,23.02z
		 M32.49,10.03c-0.34-0.22-0.7-0.43-1.06-0.62c-0.06,0.21-0.12,0.35-0.21,0.51l-0.08,0.09c-0.04,0.03-0.07,0.05-0.11,0.06
		c0.02,0.02,0.09,0.09,0.22,0.19c0.06,0.05,0.1,0.08,0.13,0.1c0.03,0.02,0.07,0.05,0.12,0.08c0.15,0.1,0.3,0.16,0.44,0.19l0.17,0.02
		L32.49,10.03L32.49,10.03z"/>
</g>
<rect x="48.71" y="5.88" class="st4" width="182.12" height="34.21"/>
<text transform="matrix(1 0 0 1 48.7059 18.6614)"><tspan x="0" y="0" class="st5 st6">Directorate of OCOP</tspan><tspan x="179.31" y="0" class="st5 st7"> </tspan><tspan x="0" y="16.8" class="st8 st6">Lucknow, Uttar Pradesh, India</tspan></text>
</svg>
