<?xml version="1.0" encoding="UTF-8"?>
<svg id="Layer_2" data-name="Layer 2" xmlns="http://www.w3.org/2000/svg" xmlns:xlink="http://www.w3.org/1999/xlink" viewBox="0 0 720.23 345.62">
  <defs>
    <style>
      .cls-1 {
        fill: url(#GradientFill_41-2);
      }

      .cls-1, .cls-2, .cls-3 {
        fill-rule: evenodd;
      }

      .cls-2 {
        fill: url(#GradientFill_41);
      }

      .cls-3 {
        fill: url(#GradientFill_42);
      }

      .cls-4 {
        fill: #eb8c23;
      }

      .cls-5 {
        fill: #41b3e6;
      }

      .cls-6 {
        fill: #434343;
      }
    </style>
    <linearGradient id="GradientFill_42" data-name="GradientFill 42" x1="217.03" y1="-26.51" x2="76.02" y2="265.17" gradientUnits="userSpaceOnUse">
      <stop offset="0" stop-color="#7cc24f"/>
      <stop offset=".17" stop-color="#77bf4e"/>
      <stop offset=".36" stop-color="#6bb84d"/>
      <stop offset=".54" stop-color="#56ac4b"/>
      <stop offset=".73" stop-color="#399a49"/>
      <stop offset=".91" stop-color="#148545"/>
      <stop offset="1" stop-color="#007944"/>
    </linearGradient>
    <linearGradient id="GradientFill_41" data-name="GradientFill 41" x1="0" y1="136.48" x2="203.78" y2="136.48" gradientUnits="userSpaceOnUse">
      <stop offset="0" stop-color="#23baed"/>
      <stop offset=".61" stop-color="#1b93cf"/>
      <stop offset="1" stop-color="#135d8e"/>
    </linearGradient>
    <linearGradient id="GradientFill_41-2" data-name="GradientFill 41" x1="127.16" y1="209.51" x2="132.45" y2="216.36" xlink:href="#GradientFill_41"/>
  </defs>
  <g id="Layer_1-2" data-name="Layer 1">
    <g>
      <g>
        <path class="cls-6" d="m20.14,291.86c15.65,0,17.6,11.16,17.6,26.88s-1.96,26.88-17.6,26.88-17.6-11.16-17.6-26.88,1.96-26.88,17.6-26.88Zm0,46.08c6.16,0,7.17-5.29,7.17-19.2s-1.01-19.2-7.17-19.2-7.17,5.36-7.17,19.2,1.01,19.2,7.17,19.2Z"/>
        <path class="cls-6" d="m55.93,292.87l12.61,35.43h.15v-35.43h9.56v51.73h-11.88l-12.75-36.22h-.15v36.22h-9.56v-51.73h12.03Z"/>
        <path class="cls-6" d="m114.39,292.87v8.55h-18.47v12.17h17.39v8.55h-17.39v13.91h19.2v8.55h-29.63v-51.73h28.91Z"/>
        <path class="cls-6" d="m159.81,310.33c0-7.53-1.52-10.79-6.23-10.79-5.29,0-6.52,5.29-6.52,19.92,0,15.65,2.17,18.47,6.67,18.47,3.77,0,6.52-1.96,6.52-13.11h10.43c0,11.16-2.75,20.79-16.45,20.79-15.65,0-17.6-11.16-17.6-26.88s1.96-26.88,17.6-26.88,16.01,10.94,16.01,18.47h-10.43Z"/>
        <path class="cls-6" d="m177.12,344.6v-51.73h10.43v51.73h-10.43Z"/>
        <path class="cls-6" d="m225.59,292.87v8.55h-11.3v43.18h-10.43v-43.18h-11.3v-8.55h33.04Z"/>
        <path class="cls-6" d="m238.41,292.87l6.81,20h.15l7.24-20h11.3l-13.4,31.37v20.36h-10.43v-20.36l-13.4-31.37h11.74Z"/>
        <path class="cls-6" d="m301.65,291.86c15.65,0,17.6,11.16,17.6,26.88s-1.96,26.88-17.6,26.88-17.6-11.16-17.6-26.88,1.96-26.88,17.6-26.88Zm0,46.08c6.16,0,7.17-5.29,7.17-19.2s-1.01-19.2-7.17-19.2-7.17,5.36-7.17,19.2,1.01,19.2,7.17,19.2Z"/>
        <path class="cls-6" d="m337.44,292.87l12.61,35.43h.15v-35.43h9.56v51.73h-11.88l-12.75-36.22h-.15v36.22h-9.56v-51.73h12.03Z"/>
        <path class="cls-6" d="m395.9,292.87v8.55h-18.47v12.17h17.39v8.55h-17.39v13.91h19.2v8.55h-29.63v-51.73h28.91Z"/>
        <path class="cls-6" d="m435.74,291.86c15.65,0,17.61,11.16,17.61,26.88s-1.96,26.88-17.61,26.88-17.6-11.16-17.6-26.88,1.96-26.88,17.6-26.88Zm0,46.08c6.16,0,7.17-5.29,7.17-19.2s-1.01-19.2-7.17-19.2-7.17,5.36-7.17,19.2,1.01,19.2,7.17,19.2Z"/>
        <path class="cls-6" d="m459.5,292.87h18.26c10.58,0,14.2,7.75,14.2,15.5,0,10.72-6.59,15.58-16.45,15.58h-5.58v20.65h-10.43v-51.73Zm10.43,23.4h4.64c4.13,0,6.96-2.46,6.96-7.75s-2.03-7.97-7.24-7.97h-4.35v15.72Z"/>
        <path class="cls-6" d="m526.01,292.87v8.55h-18.47v12.17h17.39v8.55h-17.39v13.91h19.2v8.55h-29.63v-51.73h28.91Z"/>
        <path class="cls-6" d="m531.95,292.87h19.27c8.55,0,13.77,4.49,13.77,13.33,0,6.88-2.75,11.52-8.62,12.75v.14c7.1.94,8.19,4.85,8.33,15.79.07,5.43.36,8.26,2.32,9.27v.43h-11.3c-1.01-1.45-1.23-3.41-1.3-5.43l-.29-9.93c-.15-4.06-1.96-6.52-6.16-6.52h-5.58v21.88h-10.43v-51.73Zm10.43,22.6h4.35c5,0,7.82-2.17,7.82-7.75,0-4.78-2.54-7.17-7.25-7.17h-4.93v14.92Z"/>
        <path class="cls-6" d="m582.3,292.87h12.9l13.69,51.73h-10.87l-2.39-10.94h-13.77l-2.39,10.94h-10.87l13.69-51.73Zm1.38,32.24h10.14l-5-23.26h-.14l-5,23.26Z"/>
        <path class="cls-6" d="m638.8,292.87v8.55h-11.3v43.18h-10.43v-43.18h-11.3v-8.55h33.04Z"/>
        <path class="cls-6" d="m659.81,291.86c15.65,0,17.61,11.16,17.61,26.88s-1.96,26.88-17.61,26.88-17.6-11.16-17.6-26.88,1.96-26.88,17.6-26.88Zm0,46.08c6.16,0,7.17-5.29,7.17-19.2s-1.01-19.2-7.17-19.2-7.17,5.36-7.17,19.2,1.01,19.2,7.17,19.2Z"/>
        <path class="cls-6" d="m683.57,292.87h19.27c8.55,0,13.77,4.49,13.77,13.33,0,6.88-2.75,11.52-8.62,12.75v.14c7.1.94,8.19,4.85,8.33,15.79.07,5.43.36,8.26,2.32,9.27v.43h-11.3c-1.01-1.45-1.23-3.41-1.3-5.43l-.29-9.93c-.15-4.06-1.96-6.52-6.16-6.52h-5.58v21.88h-10.43v-51.73Zm10.43,22.6h4.35c5,0,7.82-2.17,7.82-7.75,0-4.78-2.54-7.17-7.25-7.17h-4.93v14.92Z"/>
      </g>
      <path class="cls-5" d="m27.49,212.57c-1.77.72-3.94,1.22-6.81,1.22-1.05,0-2.01-.07-2.89-.19,3.29-.15,6.53-.49,9.7-1.03Z"/>
      <g>
        <g>
          <path class="cls-3" d="m233.4,88.34h0C214.78,42.95,170.16,10.97,118.05,10.97c-13.34,0-27.58,2.09-40.18,6.63,10.71,7.7,32.16,18.5,43.26,47.14,17.9,44.03,48.14,57.56,96.66,41.53-15.12-43.79-47.72-76.04-74.43-86.04,48.65,15.77,83.83,61.46,83.83,115.37,0,66.97-54.3,121.26-121.27,121.26-9.67,0-19.06-1.14-28.07-3.27,12.61,4.3,26.13,6.63,40.19,6.63,68.83,0,124.62-55.79,124.62-124.61,0-12.62-1.87-24.8-5.36-36.27h.01c-.41-10.14-.05-16.77.97-25.01,19.37-4.05,32.65-11.7,34.37-35.71.77-10.82,2.12-28.77,7.43-38.6-35.21,11.4-53.88,32.96-49.58,72.97,4.74-22.39,12.1-41.89,28.68-55.68-16.23,17.4-24.82,41.09-25.78,71.05Z"/>
          <path class="cls-2" d="m201.78,121.58c-.16.03-.33.06-.5.09.52,3.7.8,7.49.8,11.34,0,18.86-6.47,36.21-17.33,49.94-4.17.43-6.62,2.04-8.82,3.48-2.34,1.52-4.35,2.84-8.58,2.84s-6.24-1.32-8.57-2.84c-2.58-1.69-5.51-3.6-11.12-3.6s-8.54,1.91-11.12,3.6c-2.33,1.52-4.35,2.84-8.58,2.84s-6.24-1.32-8.57-2.84c-2.58-1.69-5.5-3.6-11.12-3.6s-8.54,1.91-11.12,3.6c-2.33,1.52-4.34,2.84-8.57,2.84s-6.25-1.32-8.58-2.84c-2.58-1.69-5.5-3.6-11.12-3.6-4.18,0-6.87,1.06-9.03,2.3-11.91-14.06-19.09-32.25-19.09-52.12,0-38.44,26.89-70.6,62.89-78.69-2.33-3.43-4.84-6.44-7.42-9.11l-.19.74c-2.57.62-5.1,1.34-7.57,2.14l-3.88-3.52-13.19-11.98-26.08,15.95,3.14,11.58,2.76,10.18c-3.16,3-6.11,6.21-8.85,9.6l-13.24-2.16-9.48-1.54-13.18,27.57,5.1,4.57,11.58,10.36c-1.01,4.25-1.75,8.6-2.21,13.03l-14.99,6.6-5.95,2.62,3.97,30.3,6.85,1.07,15.23,2.36c.98,2.78,2.08,5.5,3.29,8.15.62,1.37,1.28,2.72,1.97,4.05l-.43.65-3.34,5.09-3.7,5.63-.06.09-4.99,7.62.04.04,3.04,3.58,16.75,19.64,11.67-5.24,8.76-3.94c3.5,2.68,7.17,5.16,11,7.36l-.02,6.67c10.82,4.07,22.56,6.3,34.82,6.3,2.19,0,4.37-.07,6.53-.21v-.02s.07,0,.1,0c23.91-1.58,45.51-11.66,61.78-27.24h.01c3.13-3.02,6.05-6.21,8.76-9.59,1.6-1.98,3.11-4.02,4.55-6.13,1.01-1.48,1.98-2.99,2.91-4.52.87-1.43,1.71-2.89,2.49-4.37.75-1.36,1.45-2.75,2.12-4.15,6.21-12.93,9.68-27.42,9.68-42.72,0-6.8-.69-13.44-2-19.85Zm-80.37,92.1c-2.78,0-5.52-.14-8.23-.42h0c-4.88-.4-9.62-1.28-14.18-2.61.24-.16.48-.31.71-.46,2.33-1.52,4.34-2.84,8.57-2.84s6.24,1.32,8.57,2.84c2.09,1.37,4.42,2.89,8.21,3.41-1.2.05-2.42.08-3.64.08Zm6.55.11c-1.05,0-2.01-.07-2.89-.19,3.29-.15,6.53-.49,9.7-1.03-1.77.72-3.94,1.22-6.81,1.22Zm6.82-1.22c1.69-.68,3.04-1.56,4.3-2.38,2.33-1.52,4.35-2.84,8.58-2.84,1.57,0,2.83.18,3.92.49-5.34,2.17-10.96,3.77-16.8,4.73Zm22.45-7.26h-.01c-2.26-1.37-5.04-2.61-9.56-2.61-5.62,0-8.54,1.91-11.12,3.6-2.33,1.52-4.35,2.84-8.58,2.84s-6.24-1.32-8.57-2.84c-2.58-1.69-5.5-3.6-11.12-3.6s-8.54,1.91-11.12,3.6c-1.37.9-2.64,1.72-4.31,2.25-1.48-.58-2.94-1.21-4.37-1.89-.02-.01-.04-.01-.05-.02-5.32-2.39-10.32-5.33-14.95-8.76,1.51.53,2.7,1.3,3.99,2.14,2.57,1.69,5.5,3.6,11.12,3.6s8.54-1.91,11.12-3.6c2.33-1.52,4.34-2.84,8.57-2.84s6.24,1.32,8.57,2.84c2.58,1.69,5.51,3.6,11.12,3.6s8.54-1.91,11.12-3.6c2.33-1.52,4.35-2.84,8.58-2.84s6.24,1.32,8.57,2.84c1.56,1.02,3.24,2.12,5.58,2.83-1.5.87-3.02,1.69-4.58,2.46Zm10.66-6.35h-.01c-.17.01-.35.01-.53.01-4.23,0-6.24-1.32-8.57-2.84-2.58-1.69-5.51-3.6-11.12-3.6s-8.54,1.91-11.12,3.6c-2.33,1.52-4.35,2.84-8.58,2.84s-6.24-1.32-8.57-2.84c-2.58-1.69-5.5-3.6-11.12-3.6s-8.54,1.91-11.12,3.6c-2.33,1.52-4.34,2.84-8.57,2.84s-6.25-1.32-8.58-2.84c-2.58-1.69-5.5-3.6-11.12-3.6-.64,0-1.25.02-1.82.08-1.38-1.26-2.72-2.57-4.01-3.92,1.5-.72,3.25-1.21,5.83-1.21,4.23,0,6.24,1.31,8.58,2.84,2.57,1.69,5.5,3.6,11.12,3.6s8.54-1.91,11.12-3.6c2.33-1.53,4.34-2.84,8.57-2.84s6.24,1.31,8.57,2.84c2.58,1.69,5.51,3.6,11.12,3.6s8.54-1.91,11.12-3.6c2.33-1.53,4.35-2.84,8.58-2.84s6.24,1.31,8.57,2.84c2.58,1.69,5.5,3.6,11.12,3.6,5,0,7.86-1.51,10.25-3.03-3.02,2.93-6.26,5.62-9.71,8.07Z"/>
          <path class="cls-1" d="m134.77,212.57c-1.77.72-3.94,1.22-6.81,1.22-1.05,0-2.01-.07-2.89-.19,3.29-.15,6.53-.49,9.7-1.03Z"/>
        </g>
        <path class="cls-4" d="m364.36,102.34c0-29.68-3.42-42.81-19.41-42.81-19.12,0-20.83,18.26-20.83,71.63,0,60.5,2,76.2,21.97,76.2,17.69,0,19.69-20.26,19.98-51.94h46.23v7.13c0,43.95-12.27,76.77-71.63,76.77s-66.21-45.95-66.21-107.3c0-52.23,2.85-104.45,70.78-104.45,42.24,0,65.35,18.26,65.35,66.21v8.56h-46.23Z"/>
        <path class="cls-4" d="m494.2,239.32c-63.07,0-71.63-41.09-71.63-105.88s8.56-105.88,71.63-105.88c67.92,0,71.63,49.37,71.63,105.88s-3.71,105.88-71.63,105.88Zm-.29-31.96c19.41,0,22.26-17.98,22.26-73.91s-2.85-73.92-22.26-73.92-21.69,17.98-21.69,73.92,2.85,73.91,21.69,73.91Z"/>
        <path class="cls-4" d="m585.81,31.56h74.2c50.51,0,60.22,36.53,60.22,61.93,0,36.53-17.41,62.21-65.35,62.21h-21.12v79.62h-47.95V31.56Zm47.95,88.75h13.13c19.12,0,23.69-11.99,23.69-25.68,0-15.7-5.14-27.68-24.54-27.68h-12.27v53.37Z"/>
      </g>
    </g>
  </g>
</svg>